<svg width="17" height="17" viewBox="0 0 17 17" fill="none" xmlns="http://www.w3.org/2000/svg">
<path d="M1.40203 16.2984C1.40203 16.7306 1.67122 16.9995 2.10305 16.9995C2.53593 16.9995 2.80407 16.7306 2.80407 16.2984V9.81403H3.50508V16.2984C3.50508 16.7299 3.77392 16.9995 4.2061 16.9995C4.63828 16.9995 4.90712 16.7306 4.90712 16.2984V5.25742H5.25762V9.22307C5.25762 10.0625 6.31125 10.0625 6.30915 9.22307V4.96335C6.30915 4.0359 5.64108 3.50488 4.55661 3.50488H1.75254C0.764108 3.50488 0 3.93215 0 4.93741V9.46352C0 10.1645 1.05152 10.1645 1.05152 9.46352V5.25742H1.40203V16.2984Z" fill="#21634B"/>
<path d="M3.10991 2.89169C3.90843 2.89169 4.55576 2.24437 4.55576 1.44585C4.55576 0.647327 3.90843 0 3.10991 0C2.31139 0 1.66406 0.647327 1.66406 1.44585C1.66406 2.24437 2.31139 2.89169 3.10991 2.89169Z" fill="#21634B"/>
<path d="M11.8736 2.89169C12.6721 2.89169 13.3194 2.24437 13.3194 1.44585C13.3194 0.647327 12.6721 0 11.8736 0C11.0751 0 10.4277 0.647327 10.4277 1.44585C10.4277 2.24437 11.0751 2.89169 11.8736 2.89169Z" fill="#21634B"/>
<path d="M15.3924 11.0408L13.3212 5.34961L13.3093 5.29107C13.3093 5.208 13.3791 5.1407 13.466 5.1407C13.54 5.1407 13.602 5.19013 13.6185 5.25602L15.0265 8.93776C15.1201 9.14842 15.5049 9.28827 15.758 9.28827C16.0962 9.28827 16.1313 8.62406 16.1239 8.58725L14.7159 5.04467C14.5936 4.23114 13.772 3.50488 12.8344 3.50488H10.9995C10.0619 3.50488 9.17964 4.23114 9.05696 5.04467L7.71206 8.63107C7.68157 8.70082 7.71206 9.31035 8.07799 9.31035C8.36226 9.31035 8.74046 9.20029 8.80916 8.94898L10.1674 5.24621C10.1789 5.21625 10.1991 5.19045 10.2255 5.17219C10.2519 5.15393 10.2832 5.14406 10.3153 5.14386C10.4015 5.14386 10.4713 5.20976 10.4713 5.29247L10.4618 5.3454L8.44357 11.0415C8.43937 11.0583 8.44357 11.4621 8.44357 11.4793C8.44357 11.6006 8.7366 11.9174 8.86348 11.9174H10.1653V16.3321C10.1653 16.6966 10.4863 16.9998 10.8663 16.9998C11.2462 16.9998 11.5673 16.6963 11.5673 16.3321V11.7387C11.5673 11.6395 12.2683 11.6426 12.2683 11.7418V16.2984C12.2683 16.663 12.5897 16.9995 12.9693 16.9995C13.35 16.9995 13.6704 16.6626 13.6704 16.2984V11.9171H15.0265C15.1534 11.9171 15.3924 11.6002 15.3924 11.4789C15.3924 11.4509 15.4026 11.065 15.3924 11.0408Z" fill="#21634B"/>
</svg>
