<svg width="14" height="20" viewBox="0 0 14 20" fill="none" xmlns="http://www.w3.org/2000/svg">
<path d="M13.5811 3.60026C13.5809 3.2617 13.4661 2.93318 13.2555 2.6681C13.0449 2.40303 12.7508 2.21699 12.4211 2.14026L12.0411 0.760255C11.9719 0.53702 11.8321 0.342262 11.6428 0.205224C11.4534 0.0681858 11.2248 -0.00373669 10.9911 0.000255454H2.58107C2.34832 -0.00485392 2.12036 0.0668047 1.93239 0.204166C1.74442 0.341526 1.6069 0.536949 1.54107 0.760255L1.16107 2.14026C0.819582 2.22695 0.518146 2.42811 0.307047 2.71018C0.0959469 2.99225 -0.0120511 3.33818 0.00106878 3.69026C0.000886377 4.00963 0.10402 4.32049 0.295067 4.57643C0.486114 4.83236 0.754825 5.01962 1.06107 5.11026L1.16107 7.88026C1.00096 7.90624 0.853596 7.98344 0.741069 8.10026C0.670484 8.17487 0.615542 8.26286 0.579477 8.35903C0.543411 8.45521 0.526952 8.55762 0.531069 8.66026L0.771069 14.4203C0.778548 14.5972 0.847589 14.766 0.966267 14.8974C1.08494 15.0289 1.24581 15.1148 1.42107 15.1403L1.50107 17.3603C1.52191 18.0323 1.80427 18.6696 2.28803 19.1366C2.77179 19.6035 3.41872 19.8632 4.09107 19.8603H9.48107C10.1551 19.8658 10.8046 19.6073 11.2905 19.1401C11.7764 18.6729 12.0602 18.034 12.0811 17.3603L12.1611 15.1403C12.3345 15.1127 12.493 15.0259 12.6097 14.8946C12.7264 14.7633 12.794 14.5957 12.8011 14.4203L13.0411 8.66026C13.0452 8.55762 13.0287 8.45521 12.9927 8.35903C12.9566 8.26286 12.9017 8.17487 12.8311 8.10026C12.7225 7.98357 12.5783 7.90619 12.4211 7.88026L12.5211 5.11026C12.8376 5.00761 13.1122 4.80479 13.3034 4.53242C13.4946 4.26004 13.5921 3.93286 13.5811 3.60026ZM2.58107 1.00026L11.0711 1.03026L11.3711 2.10026H2.23107L2.58107 1.00026ZM11.0811 17.3303C11.068 17.7441 10.893 18.1362 10.5938 18.4223C10.2946 18.7084 9.89504 18.8657 9.48107 18.8603H4.09107C3.67845 18.8644 3.28069 18.7064 2.98335 18.4202C2.68601 18.1341 2.51284 17.7427 2.50107 17.3303L2.42107 15.1503H11.1611L11.0811 17.3303ZM4.69107 11.5103C4.69107 11.0949 4.81423 10.6889 5.04498 10.3436C5.27573 9.99822 5.60371 9.72905 5.98743 9.57011C6.37116 9.41116 6.7934 9.36958 7.20076 9.45061C7.60812 9.53164 7.9823 9.73164 8.27599 10.0253C8.56968 10.319 8.76969 10.6932 8.85072 11.1006C8.93175 11.5079 8.89016 11.9302 8.73122 12.3139C8.57227 12.6976 8.30311 13.0256 7.95777 13.2563C7.61242 13.4871 7.20641 13.6103 6.79107 13.6103C6.23411 13.6103 5.69997 13.389 5.30614 12.9952C4.91232 12.6014 4.69107 12.0672 4.69107 11.5103ZM11.4211 7.86026H2.16107L2.06107 5.19026H11.5111L11.4211 7.86026ZM12.0811 4.19026H1.50107C1.42817 4.18812 1.35653 4.17067 1.29081 4.13904C1.22509 4.10741 1.16675 4.06231 1.1196 4.00667C1.07245 3.95103 1.03752 3.88609 1.0171 3.81607C0.996682 3.74605 0.991219 3.67252 1.00107 3.60026C1.00107 3.46765 1.05375 3.34047 1.14752 3.2467C1.24128 3.15293 1.36846 3.10026 1.50107 3.10026H12.0811C12.1535 3.10388 12.2243 3.12232 12.2893 3.15443C12.3543 3.18654 12.412 3.23164 12.4589 3.28694C12.5058 3.34223 12.5408 3.40656 12.5618 3.47593C12.5828 3.5453 12.5894 3.61825 12.5811 3.69026C12.5811 3.82286 12.5284 3.95004 12.4346 4.04381C12.3409 4.13758 12.2137 4.19026 12.0811 4.19026Z" fill="white"/>
</svg>
