<svg width="18" height="16" viewBox="0 0 18 16" fill="none" xmlns="http://www.w3.org/2000/svg">
<path d="M15.9231 2.08696H13.5242L12.3447 0.309565C12.2815 0.214393 12.1959 0.13635 12.0956 0.0823527C11.9952 0.0283549 11.8831 6.86999e-05 11.7692 0H6.23077C6.11691 6.86999e-05 6.00482 0.0283549 5.90444 0.0823527C5.80406 0.13635 5.71848 0.214393 5.65529 0.309565L4.4749 2.08696H2.07692C1.52609 2.08696 0.997815 2.30683 0.608317 2.69821C0.218818 3.08959 0 3.62042 0 4.17391V13.913C0 14.4665 0.218818 14.9974 0.608317 15.3887C0.997815 15.7801 1.52609 16 2.07692 16H15.9231C16.4739 16 17.0022 15.7801 17.3917 15.3887C17.7812 14.9974 18 14.4665 18 13.913V4.17391C18 3.62042 17.7812 3.08959 17.3917 2.69821C17.0022 2.30683 16.4739 2.08696 15.9231 2.08696ZM12.1154 8.69565C12.1154 9.31479 11.9327 9.92003 11.5903 10.4348C11.248 10.9496 10.7615 11.3509 10.1922 11.5878C9.62294 11.8247 8.99654 11.8867 8.39222 11.7659C7.78789 11.6451 7.23279 11.347 6.79709 10.9092C6.3614 10.4714 6.06468 9.91361 5.94448 9.30637C5.82427 8.69913 5.88596 8.0697 6.12176 7.49769C6.35756 6.92567 6.75686 6.43677 7.26919 6.09279C7.78151 5.74881 8.38384 5.56522 9 5.56522C9.82625 5.56522 10.6187 5.89503 11.2029 6.4821C11.7872 7.06917 12.1154 7.86541 12.1154 8.69565Z" fill="white"/>
</svg>
