<svg width="16" height="16" viewBox="0 0 16 16" fill="none" xmlns="http://www.w3.org/2000/svg">
<path d="M7.91667 0C12.289 0 15.8333 3.54429 15.8333 7.91667C15.8333 12.289 12.289 15.8333 7.91667 15.8333C3.54429 15.8333 0 12.289 0 7.91667C0 3.54429 3.54429 0 7.91667 0ZM9.10417 3.95833H7.125C6.70507 3.95833 6.30235 4.12515 6.00541 4.42208C5.70848 4.71901 5.54167 5.12174 5.54167 5.54167V11.0833C5.54167 11.2933 5.62507 11.4947 5.77354 11.6431C5.92201 11.7916 6.12337 11.875 6.33333 11.875C6.5433 11.875 6.74466 11.7916 6.89313 11.6431C7.04159 11.4947 7.125 11.2933 7.125 11.0833V9.5H9.10417C9.83904 9.5 10.5438 9.20807 11.0634 8.68844C11.5831 8.16881 11.875 7.46404 11.875 6.72917C11.875 5.9943 11.5831 5.28952 11.0634 4.76989C10.5438 4.25026 9.83904 3.95833 9.10417 3.95833ZM9.10417 5.54167C9.41911 5.54167 9.72116 5.66678 9.94386 5.88948C10.1666 6.11218 10.2917 6.41422 10.2917 6.72917C10.2917 7.04411 10.1666 7.34616 9.94386 7.56886C9.72116 7.79156 9.41911 7.91667 9.10417 7.91667H7.125V5.54167H9.10417Z" fill="white"/>
</svg>
