<svg width="12" height="17" viewBox="0 0 12 17" fill="none" xmlns="http://www.w3.org/2000/svg">
<path d="M11.9165 3.6652C11.8565 3.56595 11.7683 3.48847 11.6641 3.44343C11.5599 3.3984 11.4448 3.38802 11.3347 3.41374C10.6991 3.56214 10.0709 3.73249 9.46835 3.91737C8.27274 4.28535 7.10408 4.76454 5.79047 5.42577C5.1555 5.7463 4.90383 5.89859 4.15359 6.35122L4.00013 6.44578C2.87648 7.1187 2.05326 7.86245 1.48376 8.72273C0.858673 9.66482 0.541868 10.7666 0.541868 11.9935C0.541868 13.4364 1.07761 14.7241 2.05053 15.6191C3.0313 16.5226 4.39742 17 5.99815 17C7.59275 17 8.96126 16.4925 9.95396 15.5327C10.9207 14.5994 11.4544 13.2876 11.4544 11.8391C11.4544 10.9536 11.2434 10.1745 11.0394 9.42292C10.6101 7.84014 10.2394 6.47305 11.8821 4.31829C11.9521 4.22647 11.993 4.11438 11.9992 3.99743C12.0054 3.88047 11.9765 3.76441 11.9165 3.6652ZM4.73639 3.66733C3.01288 2.69443 0.728063 2.29103 0.631555 2.27438C0.505991 2.25299 0.377176 2.27785 0.26739 2.34465C0.157605 2.41146 0.0737543 2.51602 0.0303409 2.64024C-0.00335354 2.74234 -0.00911203 2.85214 0.013706 2.95744C0.036524 3.06274 0.0870238 3.15939 0.159587 3.23666C1.24539 4.43304 1.28017 5.67298 1.1366 6.94232C1.13286 6.97501 1.13907 7.0081 1.15436 7.03694C1.16966 7.06578 1.19326 7.08892 1.22186 7.10312C1.25033 7.1172 1.28233 7.12171 1.31339 7.11599C1.34445 7.11028 1.37301 7.09463 1.39509 7.07124C1.95402 6.48651 2.63538 5.9549 3.45484 5.46367L3.60762 5.37159C4.36127 4.91577 4.64193 4.74577 5.31612 4.40612L5.40785 4.36008C5.42909 4.34951 5.44734 4.3334 5.4608 4.31333C5.47427 4.29326 5.4825 4.26991 5.4847 4.24555C5.4869 4.22119 5.48299 4.19666 5.47334 4.17434C5.4637 4.15202 5.44866 4.13267 5.42968 4.11818C5.20855 3.95197 4.97693 3.80134 4.73639 3.66733ZM5.25678 2.67211C5.37409 2.73834 5.49856 2.81378 5.62849 2.89489C5.9888 3.12429 6.32656 3.3899 6.63688 3.68787C6.65612 3.70649 6.68014 3.71894 6.70603 3.72372C6.73193 3.72849 6.7586 3.72539 6.78284 3.71479C7.55831 3.37456 8.35124 3.07897 9.15803 2.82936C9.31717 2.78049 9.47722 2.73327 9.63818 2.6877C9.65754 2.68217 9.67548 2.67227 9.69073 2.65871C9.70598 2.64515 9.71816 2.62827 9.7264 2.60925C9.73464 2.59024 9.73874 2.56957 9.7384 2.54873C9.73807 2.52788 9.73331 2.50737 9.72446 2.48865C9.44243 1.89259 9.22418 1.46511 9.20781 1.43359C9.16131 1.34289 9.09194 1.26703 9.00713 1.21413C8.92231 1.16122 8.82524 1.13327 8.7263 1.13325C8.66116 1.13325 7.59139 1.146 6.10489 1.88763C5.79622 2.04198 5.4958 2.21353 5.20495 2.40153C5.18448 2.41461 5.1677 2.43307 5.1563 2.45505C5.14491 2.47702 5.13931 2.50174 5.14008 2.52668C5.14084 2.55163 5.14793 2.57593 5.16064 2.59711C5.17335 2.6183 5.19122 2.63562 5.21245 2.64732L5.25678 2.67211ZM4.40662 1.58623C4.65557 1.41729 4.90928 1.25969 5.16539 1.11483C5.17544 1.10916 5.18395 1.10094 5.19014 1.09095C5.19634 1.08096 5.20001 1.06951 5.20083 1.05766C5.20164 1.04581 5.19957 1.03393 5.19481 1.02313C5.19005 1.01232 5.18274 1.00294 5.17357 0.995834C4.28693 0.302726 3.47769 0.0395791 3.42927 0.024704C3.32119 -0.00957112 3.20553 -0.00814898 3.09826 0.0287741C2.99099 0.0656971 2.89741 0.136299 2.83044 0.23083C2.57976 0.59263 2.35977 0.976334 2.17296 1.37763C2.16854 1.38704 2.16619 1.39736 2.16608 1.40783C2.16596 1.41831 2.16808 1.42867 2.17229 1.43819C2.1765 1.44771 2.18269 1.45614 2.19041 1.46288C2.19813 1.46961 2.20719 1.47449 2.21695 1.47715C2.68107 1.60359 3.21954 1.77075 3.77233 1.98326C3.78233 1.98712 3.79306 1.98848 3.80366 1.98725C3.81426 1.98602 3.82444 1.98223 3.83337 1.97617L4.40662 1.58623Z" fill="white"/>
</svg>
