<svg width="19" height="16" viewBox="0 0 19 16" fill="none" xmlns="http://www.w3.org/2000/svg">
<mask id="path-1-outside-1_2162_891" maskUnits="userSpaceOnUse" x="0" y="0" width="19" height="16" fill="black">
<rect fill="white" width="19" height="16"/>
<path d="M17.0461 7.09082V13.67C17.0461 14.0488 16.9092 14.3653 16.6352 14.6195C16.3612 14.8737 16.0203 15.0005 15.6126 15H3.38855C2.98022 15 2.63906 14.8732 2.36507 14.6195C2.09108 14.3659 1.95438 14.0494 1.95497 13.67V7.05953C1.58038 6.80314 1.30638 6.46686 1.13299 6.05071C0.959603 5.63455 0.955756 5.19067 1.12145 4.71906L1.98515 2.07718C2.10351 1.74118 2.29435 1.47765 2.55769 1.28659C2.82163 1.09553 3.14769 1 3.5359 1H15.4306C15.8182 1 16.1431 1.08949 16.4053 1.26847C16.6668 1.44745 16.8586 1.70631 16.9805 2.04506L17.8779 4.71824C18.0442 5.19039 18.0406 5.63812 17.8672 6.06141C17.6938 6.48471 17.4199 6.82784 17.0453 7.09082M11.453 6.76471C12.0229 6.76471 12.4483 6.61647 12.7294 6.32C13.0105 6.02408 13.1289 5.71827 13.0845 5.40259L12.496 1.82353H9.94572V5.28235C9.94572 5.68698 10.0949 6.03506 10.3931 6.32659C10.6914 6.61867 11.0452 6.76471 11.4548 6.76471M7.46026 6.76471C7.93723 6.76471 8.32278 6.61867 8.61689 6.32659C8.911 6.03451 9.05806 5.68643 9.05806 5.28235V1.82353H6.50691L5.91573 5.466C5.87963 5.72184 6.00006 6.00212 6.27701 6.30682C6.55396 6.61153 6.94897 6.76416 7.46026 6.76471ZM3.50927 6.76471C3.90043 6.76471 4.23301 6.64118 4.507 6.39412C4.781 6.14706 4.95143 5.83878 5.0183 5.46929L5.57486 1.82353H3.53679C3.34328 1.82353 3.18942 1.86306 3.0752 1.94212C2.96099 2.02118 2.87577 2.14004 2.81956 2.29871L2.00024 4.89941C1.85466 5.33204 1.9168 5.75122 2.18665 6.15694C2.4565 6.56267 2.89737 6.76525 3.50927 6.76471ZM15.4927 6.76471C16.0242 6.76471 16.4485 6.57255 16.7656 6.18823C17.0834 5.80392 17.1621 5.37431 17.0018 4.89941L16.1381 2.26741C16.0813 2.10874 15.9957 1.9951 15.8815 1.92647C15.7673 1.85784 15.6138 1.82353 15.4208 1.82353H13.4271L13.9837 5.46929C14.0506 5.83878 14.221 6.14706 14.495 6.39412C14.769 6.64118 15.1016 6.76471 15.4927 6.76471ZM3.38944 14.1765H15.6126C15.7718 14.1765 15.9025 14.129 16.0049 14.034C16.1073 13.939 16.1585 13.8177 16.1585 13.67V7.48365C16.0389 7.52208 15.9253 7.54898 15.8176 7.56435C15.7105 7.58027 15.6022 7.58823 15.4927 7.58823C15.0933 7.58823 14.7418 7.51604 14.4382 7.37165C14.1346 7.22725 13.8464 6.99667 13.5736 6.67988C13.3416 6.9478 13.0555 7.16604 12.7152 7.33459C12.375 7.50314 11.9613 7.58769 11.4743 7.58823C11.1204 7.58823 10.7837 7.51165 10.4641 7.35847C10.1446 7.20529 9.82352 6.97882 9.501 6.67906C9.20393 6.97882 8.87461 7.20529 8.51303 7.35847C8.15205 7.51165 7.80764 7.58823 7.47979 7.58823C7.10757 7.58823 6.74481 7.52235 6.39152 7.39059C6.03823 7.25882 5.72843 7.02165 5.46213 6.67906C5.02599 7.08369 4.64489 7.33623 4.31882 7.43671C3.99334 7.53772 3.72349 7.58823 3.50927 7.58823C3.39979 7.58823 3.28972 7.58027 3.17906 7.56435C3.06781 7.54843 2.95596 7.52153 2.84352 7.48365V13.6692C2.84352 13.8174 2.89471 13.939 2.99709 14.034C3.09947 14.129 3.23025 14.1765 3.38944 14.1765Z"/>
</mask>
<path d="M17.0461 7.09082V13.67C17.0461 14.0488 16.9092 14.3653 16.6352 14.6195C16.3612 14.8737 16.0203 15.0005 15.6126 15H3.38855C2.98022 15 2.63906 14.8732 2.36507 14.6195C2.09108 14.3659 1.95438 14.0494 1.95497 13.67V7.05953C1.58038 6.80314 1.30638 6.46686 1.13299 6.05071C0.959603 5.63455 0.955756 5.19067 1.12145 4.71906L1.98515 2.07718C2.10351 1.74118 2.29435 1.47765 2.55769 1.28659C2.82163 1.09553 3.14769 1 3.5359 1H15.4306C15.8182 1 16.1431 1.08949 16.4053 1.26847C16.6668 1.44745 16.8586 1.70631 16.9805 2.04506L17.8779 4.71824C18.0442 5.19039 18.0406 5.63812 17.8672 6.06141C17.6938 6.48471 17.4199 6.82784 17.0453 7.09082M11.453 6.76471C12.0229 6.76471 12.4483 6.61647 12.7294 6.32C13.0105 6.02408 13.1289 5.71827 13.0845 5.40259L12.496 1.82353H9.94572V5.28235C9.94572 5.68698 10.0949 6.03506 10.3931 6.32659C10.6914 6.61867 11.0452 6.76471 11.4548 6.76471M7.46026 6.76471C7.93723 6.76471 8.32278 6.61867 8.61689 6.32659C8.911 6.03451 9.05806 5.68643 9.05806 5.28235V1.82353H6.50691L5.91573 5.466C5.87963 5.72184 6.00006 6.00212 6.27701 6.30682C6.55396 6.61153 6.94897 6.76416 7.46026 6.76471ZM3.50927 6.76471C3.90043 6.76471 4.23301 6.64118 4.507 6.39412C4.781 6.14706 4.95143 5.83878 5.0183 5.46929L5.57486 1.82353H3.53679C3.34328 1.82353 3.18942 1.86306 3.0752 1.94212C2.96099 2.02118 2.87577 2.14004 2.81956 2.29871L2.00024 4.89941C1.85466 5.33204 1.9168 5.75122 2.18665 6.15694C2.4565 6.56267 2.89737 6.76525 3.50927 6.76471ZM15.4927 6.76471C16.0242 6.76471 16.4485 6.57255 16.7656 6.18823C17.0834 5.80392 17.1621 5.37431 17.0018 4.89941L16.1381 2.26741C16.0813 2.10874 15.9957 1.9951 15.8815 1.92647C15.7673 1.85784 15.6138 1.82353 15.4208 1.82353H13.4271L13.9837 5.46929C14.0506 5.83878 14.221 6.14706 14.495 6.39412C14.769 6.64118 15.1016 6.76471 15.4927 6.76471ZM3.38944 14.1765H15.6126C15.7718 14.1765 15.9025 14.129 16.0049 14.034C16.1073 13.939 16.1585 13.8177 16.1585 13.67V7.48365C16.0389 7.52208 15.9253 7.54898 15.8176 7.56435C15.7105 7.58027 15.6022 7.58823 15.4927 7.58823C15.0933 7.58823 14.7418 7.51604 14.4382 7.37165C14.1346 7.22725 13.8464 6.99667 13.5736 6.67988C13.3416 6.9478 13.0555 7.16604 12.7152 7.33459C12.375 7.50314 11.9613 7.58769 11.4743 7.58823C11.1204 7.58823 10.7837 7.51165 10.4641 7.35847C10.1446 7.20529 9.82352 6.97882 9.501 6.67906C9.20393 6.97882 8.87461 7.20529 8.51303 7.35847C8.15205 7.51165 7.80764 7.58823 7.47979 7.58823C7.10757 7.58823 6.74481 7.52235 6.39152 7.39059C6.03823 7.25882 5.72843 7.02165 5.46213 6.67906C5.02599 7.08369 4.64489 7.33623 4.31882 7.43671C3.99334 7.53772 3.72349 7.58823 3.50927 7.58823C3.39979 7.58823 3.28972 7.58027 3.17906 7.56435C3.06781 7.54843 2.95596 7.52153 2.84352 7.48365V13.6692C2.84352 13.8174 2.89471 13.939 2.99709 14.034C3.09947 14.129 3.23025 14.1765 3.38944 14.1765Z" fill="white"/>
<path d="M15.6126 15L15.6128 14.8H15.6126V15ZM1.95497 13.67L2.15497 13.6703V13.67H1.95497ZM1.95497 7.05953H2.15497V6.95406L2.06793 6.89449L1.95497 7.05953ZM1.12145 4.71906L1.31019 4.78537L1.31155 4.78121L1.12145 4.71906ZM1.98515 2.07718L1.79646 2.01071L1.79505 2.01503L1.98515 2.07718ZM2.55769 1.28659L2.44042 1.12458L2.44025 1.12471L2.55769 1.28659ZM16.4053 1.26847L16.5182 1.10341L16.518 1.10329L16.4053 1.26847ZM16.9805 2.04506L17.1701 1.98139L17.1686 1.97734L16.9805 2.04506ZM17.8779 4.71824L17.6883 4.78189L17.6892 4.78467L17.8779 4.71824ZM12.7294 6.32L12.5844 6.18226L12.5843 6.18239L12.7294 6.32ZM13.0845 5.40259L13.2826 5.37474L13.2819 5.37014L13.0845 5.40259ZM12.496 1.82353L12.6933 1.79108L12.6658 1.62353H12.496V1.82353ZM9.94572 1.82353V1.62353H9.74572V1.82353H9.94572ZM10.3931 6.32659L10.533 6.18369L10.5329 6.18356L10.3931 6.32659ZM7.46026 6.76471L7.46005 6.96471H7.46026V6.76471ZM9.05806 1.82353H9.25806V1.62353H9.05806V1.82353ZM6.50691 1.82353V1.62353H6.33676L6.3095 1.79149L6.50691 1.82353ZM5.91573 5.466L5.71827 5.43395L5.71769 5.43806L5.91573 5.466ZM3.50927 6.76471L3.50927 6.56471L3.50909 6.56471L3.50927 6.76471ZM5.0183 5.46929L5.21518 5.50492L5.21601 5.49948L5.0183 5.46929ZM5.57486 1.82353L5.77257 1.85371L5.80771 1.62353H5.57486V1.82353ZM2.81956 2.29871L2.63092 2.23187L2.6288 2.23861L2.81956 2.29871ZM2.00024 4.89941L2.18983 4.96321L2.191 4.95951L2.00024 4.89941ZM16.7656 6.18823L16.6115 6.06079L16.6114 6.06093L16.7656 6.18823ZM17.0018 4.89941L16.8117 4.96177L16.8123 4.9634L17.0018 4.89941ZM16.1381 2.26741L16.3282 2.20503L16.3264 2.19999L16.1381 2.26741ZM13.4271 1.82353V1.62353H13.1943L13.2294 1.85371L13.4271 1.82353ZM13.9837 5.46929L13.7859 5.49949L13.7869 5.50491L13.9837 5.46929ZM3.38944 14.1765L3.38944 13.9765L3.38944 14.1765ZM16.1585 13.67L15.9585 13.67L16.1585 13.67ZM16.1585 7.48365H16.3585V7.20926L16.0973 7.29324L16.1585 7.48365ZM15.8176 7.56435L15.7894 7.36636L15.7882 7.36653L15.8176 7.56435ZM13.5736 6.67988L13.7252 6.54937L13.574 6.37387L13.4224 6.54897L13.5736 6.67988ZM11.4743 7.58823L11.4743 7.78823L11.4745 7.78823L11.4743 7.58823ZM9.501 6.67906L9.63716 6.53256L9.49529 6.4007L9.35895 6.53828L9.501 6.67906ZM8.51303 7.35847L8.43502 7.17431L8.43491 7.17436L8.51303 7.35847ZM5.46213 6.67906L5.62004 6.55632L5.4861 6.38401L5.32611 6.53244L5.46213 6.67906ZM4.31882 7.43671L4.25993 7.24557L4.25954 7.24569L4.31882 7.43671ZM3.17906 7.56435L3.20754 7.36639L3.20739 7.36637L3.17906 7.56435ZM2.84352 7.48365L2.90738 7.29411L2.64352 7.20522V7.48365H2.84352ZM16.8461 7.09082V13.67H17.2461V7.09082H16.8461ZM16.8461 13.67C16.8461 13.994 16.7317 14.2571 16.4991 14.4729L16.7712 14.7661C17.0866 14.4735 17.2461 14.1036 17.2461 13.67H16.8461ZM16.4991 14.4729C16.2657 14.6895 15.975 14.8005 15.6128 14.8L15.6123 15.2C16.0656 15.2006 16.4566 15.058 16.7712 14.7661L16.4991 14.4729ZM15.6126 14.8H3.38855V15.2H15.6126V14.8ZM3.38855 14.8C3.02547 14.8 2.73436 14.6889 2.50094 14.4728L2.2292 14.7663C2.54376 15.0575 2.93497 15.2 3.38855 15.2V14.8ZM2.50094 14.4728C2.26866 14.2577 2.15446 13.9949 2.15497 13.6703L1.75497 13.6697C1.75429 14.1039 1.9135 14.474 2.2292 14.7663L2.50094 14.4728ZM2.15497 13.67V7.05953H1.75497V13.67H2.15497ZM2.06793 6.89449C1.725 6.65977 1.47603 6.354 1.31761 5.97379L0.948376 6.12763C1.13674 6.57972 1.43575 6.94651 1.84201 7.22457L2.06793 6.89449ZM1.31761 5.97379C1.16533 5.60831 1.1589 5.21583 1.31015 4.78535L0.932761 4.65276C0.752611 5.16551 0.753871 5.66079 0.948376 6.12763L1.31761 5.97379ZM1.31155 4.78121L2.17525 2.13932L1.79505 2.01503L0.931355 4.65691L1.31155 4.78121ZM2.17379 2.14362C2.27999 1.84212 2.44779 1.61342 2.67514 1.44847L2.44025 1.12471C2.14092 1.34188 1.92702 1.64023 1.79651 2.01073L2.17379 2.14362ZM2.67497 1.4486C2.89864 1.28668 3.18154 1.2 3.5359 1.2V0.8C3.11385 0.8 2.74461 0.904379 2.44042 1.12458L2.67497 1.4486ZM3.5359 1.2H15.4306V0.8H3.5359V1.2ZM15.4306 1.2C15.787 1.2 16.0703 1.28195 16.2925 1.43365L16.518 1.10329C16.2159 0.897032 15.8494 0.8 15.4306 0.8V1.2ZM16.2923 1.43353C16.5146 1.58562 16.6826 1.80799 16.7923 2.11278L17.1686 1.97734C17.0345 1.60464 16.8191 1.30928 16.5182 1.10341L16.2923 1.43353ZM16.7909 2.10871L17.6883 4.78189L18.0675 4.65458L17.1701 1.98141L16.7909 2.10871ZM17.6892 4.78467C17.8409 5.2153 17.8352 5.61211 17.6822 5.9856L18.0523 6.13722C18.2461 5.66413 18.2475 5.16549 18.0665 4.6518L17.6892 4.78467ZM17.6822 5.9856C17.5233 6.37347 17.2736 6.68612 16.9303 6.92713L17.1602 7.25451C17.5661 6.96956 17.8644 6.59594 18.0523 6.13722L17.6822 5.9856ZM11.453 6.96471C12.0555 6.96471 12.5428 6.80758 12.8746 6.45761L12.5843 6.18239C12.3539 6.42536 11.9902 6.56471 11.453 6.56471V6.96471ZM12.8744 6.45774C13.1847 6.1311 13.3377 5.76712 13.2826 5.37474L12.8865 5.43043C12.9201 5.66942 12.8363 5.91706 12.5844 6.18226L12.8744 6.45774ZM13.2819 5.37014L12.6933 1.79108L12.2986 1.85598L12.8872 5.43504L13.2819 5.37014ZM12.496 1.62353H9.94572V2.02353H12.496V1.62353ZM9.74572 1.82353V5.28235H10.1457V1.82353H9.74572ZM9.74572 5.28235C9.74572 5.74264 9.91788 6.14175 10.2533 6.46961L10.5329 6.18356C10.2718 5.92837 10.1457 5.63132 10.1457 5.28235H9.74572ZM10.2532 6.46948C10.588 6.79737 10.9918 6.96471 11.4548 6.96471V6.56471C11.0987 6.56471 10.7947 6.43996 10.533 6.18369L10.2532 6.46948ZM7.46026 6.96471C7.98142 6.96471 8.42054 6.80345 8.75782 6.4685L8.47596 6.18468C8.22502 6.43389 7.89305 6.56471 7.46026 6.56471V6.96471ZM8.75782 6.4685C9.08865 6.13996 9.25806 5.74124 9.25806 5.28235H8.85806C8.85806 5.63163 8.73336 5.92906 8.47596 6.18468L8.75782 6.4685ZM9.25806 5.28235V1.82353H8.85806V5.28235H9.25806ZM9.05806 1.62353H6.50691V2.02353H9.05806V1.62353ZM6.3095 1.79149L5.71831 5.43396L6.11314 5.49804L6.70433 1.85557L6.3095 1.79149ZM5.71769 5.43806C5.66938 5.78041 5.83563 6.11857 6.12901 6.44134L6.42501 6.1723C6.16448 5.88567 6.08987 5.66327 6.11377 5.49394L5.71769 5.43806ZM6.12901 6.44134C6.45271 6.79748 6.90722 6.96411 7.46005 6.96471L7.46048 6.56471C6.99072 6.5642 6.65521 6.42558 6.42501 6.1723L6.12901 6.44134ZM3.50927 6.96471C3.94665 6.96471 4.32785 6.82496 4.64094 6.54265L4.37307 6.24558C4.13817 6.45739 3.85422 6.56471 3.50927 6.56471V6.96471ZM4.64094 6.54265C4.94843 6.26538 5.1405 5.91712 5.2151 5.50491L4.8215 5.43368C4.76236 5.76045 4.61356 6.02873 4.37307 6.24558L4.64094 6.54265ZM5.21601 5.49948L5.77257 1.85371L5.37716 1.79335L4.82059 5.43911L5.21601 5.49948ZM5.57486 1.62353H3.53679V2.02353H5.57486V1.62353ZM3.53679 1.62353C3.31809 1.62353 3.11983 1.66798 2.96137 1.77767L3.18903 2.10656C3.259 2.05813 3.36846 2.02353 3.53679 2.02353V1.62353ZM2.96137 1.77767C2.80585 1.88533 2.69825 2.04222 2.63104 2.23191L3.00807 2.3655C3.0533 2.23786 3.11613 2.15703 3.18903 2.10656L2.96137 1.77767ZM2.6288 2.23861L1.80948 4.83932L2.191 4.95951L3.01031 2.3588L2.6288 2.23861ZM1.81069 4.83563C1.64389 5.3313 1.7187 5.8145 2.02012 6.2677L2.35318 6.04618C2.1149 5.68793 2.06543 5.33278 2.1898 4.9632L1.81069 4.83563ZM2.02012 6.2677C2.33668 6.74365 2.84996 6.9653 3.50945 6.96471L3.50909 6.56471C2.94479 6.56521 2.57632 6.38168 2.35318 6.04618L2.02012 6.2677ZM15.4927 6.96471C16.0793 6.96471 16.5619 6.74928 16.9199 6.31554L16.6114 6.06093C16.335 6.39582 15.969 6.56471 15.4927 6.56471V6.96471ZM16.9198 6.31568C17.282 5.87765 17.3736 5.37554 17.1913 4.83542L16.8123 4.9634C16.9506 5.37309 16.8849 5.73019 16.6115 6.06079L16.9198 6.31568ZM17.1918 4.83705L16.3281 2.20505L15.948 2.32977L16.8117 4.96177L17.1918 4.83705ZM16.3264 2.19999C16.2582 2.00962 16.1479 1.85318 15.9845 1.75504L15.7785 2.0979C15.8436 2.13702 15.9043 2.20787 15.9498 2.33483L16.3264 2.19999ZM15.9845 1.75504C15.8283 1.66116 15.6347 1.62353 15.4208 1.62353V2.02353C15.5928 2.02353 15.7063 2.05453 15.7785 2.0979L15.9845 1.75504ZM15.4208 1.62353H13.4271V2.02353H15.4208V1.62353ZM13.2294 1.85371L13.786 5.49948L14.1814 5.43911L13.6249 1.79335L13.2294 1.85371ZM13.7869 5.50491C13.8615 5.91712 14.0536 6.26538 14.3611 6.54265L14.6289 6.24558C14.3884 6.02873 14.2396 5.76045 14.1805 5.43368L13.7869 5.50491ZM14.3611 6.54265C14.6742 6.82496 15.0554 6.96471 15.4927 6.96471V6.56471C15.1478 6.56471 14.8638 6.45739 14.6289 6.24558L14.3611 6.54265ZM3.38944 14.3765H15.6126V13.9765H3.38944V14.3765ZM15.6126 14.3765C15.8146 14.3765 15.9964 14.3147 16.1409 14.1806L15.8689 13.8874C15.8087 13.9432 15.7289 13.9765 15.6126 13.9765V14.3765ZM16.1409 14.1806C16.2867 14.0454 16.3585 13.8697 16.3585 13.67L15.9585 13.67C15.9585 13.7656 15.9279 13.8326 15.8689 13.8874L16.1409 14.1806ZM16.3585 13.67V7.48365H15.9585V13.67H16.3585ZM16.0973 7.29324C15.9869 7.32873 15.8843 7.3528 15.7894 7.36636L15.8459 7.76235C15.9663 7.74516 16.091 7.71542 16.2197 7.67405L16.0973 7.29324ZM15.7882 7.36653C15.6909 7.38098 15.5925 7.38823 15.4927 7.38823V7.78823C15.612 7.78823 15.7301 7.77956 15.847 7.76218L15.7882 7.36653ZM15.4927 7.38823C15.1175 7.38823 14.7963 7.32048 14.5241 7.19104L14.3523 7.55226C14.6873 7.7116 15.0691 7.78823 15.4927 7.78823V7.38823ZM14.5241 7.19104C14.251 7.06113 13.9841 6.85006 13.7252 6.54937L13.4221 6.81039C13.7087 7.14328 14.0182 7.39338 14.3523 7.55226L14.5241 7.19104ZM13.4224 6.54897C13.209 6.7954 12.9446 6.99776 12.6265 7.15537L12.804 7.51381C13.1664 7.33432 13.4742 7.10021 13.7248 6.8108L13.4224 6.54897ZM12.6265 7.15537C12.3204 7.30699 11.9388 7.38771 11.4741 7.38823L11.4745 7.78823C11.9839 7.78766 12.4296 7.69929 12.804 7.51381L12.6265 7.15537ZM11.4743 7.38823C11.1504 7.38823 10.8432 7.31838 10.5506 7.17812L10.3777 7.53882C10.7242 7.70491 11.0904 7.78823 11.4743 7.78823V7.38823ZM10.5506 7.17812C10.253 7.03547 9.94834 6.82178 9.63716 6.53256L9.36484 6.82555C9.69871 7.13586 10.0361 7.37512 10.3777 7.53882L10.5506 7.17812ZM9.35895 6.53828C9.07881 6.82095 8.77088 7.03203 8.43502 7.17431L8.59105 7.54263C8.97833 7.37856 9.32905 7.1367 9.64306 6.81984L9.35895 6.53828ZM8.43491 7.17436C8.09388 7.31907 7.77607 7.38823 7.47979 7.38823V7.78823C7.8392 7.78823 8.21021 7.70423 8.59116 7.54258L8.43491 7.17436ZM7.47979 7.38823C7.13174 7.38823 6.79264 7.32673 6.46141 7.2032L6.32163 7.57798C6.69698 7.71797 7.08339 7.78823 7.47979 7.78823V7.38823ZM6.46141 7.2032C6.14787 7.08626 5.86707 6.87411 5.62004 6.55632L5.30423 6.8018C5.5898 7.16918 5.92858 7.43139 6.32163 7.57798L6.46141 7.2032ZM5.32611 6.53244C4.89794 6.92967 4.5433 7.15826 4.25993 7.24557L4.37771 7.62784C4.74647 7.51421 5.15405 7.2377 5.59816 6.82568L5.32611 6.53244ZM4.25954 7.24569C3.94334 7.34383 3.69513 7.38823 3.50927 7.38823V7.78823C3.75185 7.78823 4.04335 7.73162 4.37811 7.62772L4.25954 7.24569ZM3.50927 7.38823C3.40952 7.38823 3.30897 7.38098 3.20754 7.36639L3.15058 7.76231C3.27047 7.77956 3.39006 7.78823 3.50927 7.78823V7.38823ZM3.20739 7.36637C3.10886 7.35227 3.0089 7.32832 2.90738 7.29411L2.77967 7.67318C2.90302 7.71474 3.02675 7.74459 3.15073 7.76233L3.20739 7.36637ZM2.64352 7.48365V13.6692H3.04352V7.48365H2.64352ZM2.64352 13.6692C2.64352 13.8692 2.71516 14.0453 2.86106 14.1806L3.13311 13.8874C3.07426 13.8328 3.04352 13.7656 3.04352 13.6692H2.64352ZM2.86106 14.1806C3.00564 14.3147 3.18738 14.3765 3.38944 14.3765L3.38944 13.9765C3.27311 13.9765 3.19329 13.9432 3.13311 13.8874L2.86106 14.1806Z" fill="#21634B" mask="url(#path-1-outside-1_2162_891)"/>
</svg>
