<svg width="17" height="16" viewBox="0 0 17 16" fill="none" xmlns="http://www.w3.org/2000/svg">
<path d="M2.875 5.05263V8.36842M14.125 5.05263V8.36842M1 1H16V3.94737L15.4758 4.25684C15.0678 4.49733 14.601 4.62437 14.1252 4.62437C13.6494 4.62437 13.1826 4.49733 12.7746 4.25684L12.25 3.94737L11.7258 4.25684C11.3178 4.49733 10.851 4.62437 10.3752 4.62437C9.89942 4.62437 9.43259 4.49733 9.02463 4.25684L8.5 3.94737L7.97575 4.25684C7.56778 4.49733 7.10096 4.62437 6.62519 4.62437C6.14942 4.62437 5.68259 4.49733 5.27463 4.25684L4.75 3.94737L4.22537 4.25684C3.81745 4.49726 3.3507 4.62426 2.875 4.62426C2.3993 4.62426 1.93255 4.49726 1.52463 4.25684L1 3.94737V1ZM1.75 8.36842H15.25V15H1.75V8.36842Z" stroke="black" stroke-width="1.5" stroke-linecap="round" stroke-linejoin="round"/>
</svg>
