<svg width="17" height="15" viewBox="0 0 17 15" fill="none" xmlns="http://www.w3.org/2000/svg">
<mask id="path-1-outside-1_2211_620" maskUnits="userSpaceOnUse" x="0" y="0" width="17" height="15" fill="black">
<rect fill="white" width="17" height="15"/>
<path d="M15.1584 6.65576V12.765C15.1584 13.1168 15.0375 13.4107 14.7957 13.6467C14.554 13.8827 14.2532 14.0005 13.8934 14H3.10754C2.74725 14 2.44623 13.8822 2.20447 13.6467C1.96272 13.4112 1.8421 13.1173 1.84262 12.765V6.62671C1.5121 6.38863 1.27034 6.07637 1.11735 5.68994C0.964355 5.30351 0.960961 4.89133 1.10716 4.45341L1.86925 2.00024C1.97368 1.68824 2.14208 1.44353 2.37444 1.26612C2.60732 1.08871 2.89502 1 3.23756 1H13.7329C14.0749 1 14.3616 1.0831 14.5929 1.24929C14.8237 1.41549 14.9928 1.65586 15.1004 1.97041L15.8923 4.45265C16.039 4.89108 16.0358 5.30682 15.8829 5.69988C15.7299 6.09294 15.4881 6.41157 15.1576 6.65576M10.2232 6.35294C10.7261 6.35294 11.1015 6.21529 11.3495 5.94C11.5975 5.66522 11.702 5.38125 11.6628 5.08812L11.1435 1.76471H8.89329V4.97647C8.89329 5.3522 9.02487 5.67541 9.28803 5.94612C9.5512 6.21733 9.86345 6.35294 10.2248 6.35294M6.70023 6.35294C7.12109 6.35294 7.46127 6.21733 7.72079 5.94612C7.9803 5.6749 8.11005 5.35169 8.11005 4.97647V1.76471H5.85904L5.33741 5.147C5.30556 5.38457 5.41181 5.64482 5.65618 5.92776C5.90055 6.21071 6.24909 6.35243 6.70023 6.35294ZM3.21406 6.35294C3.55921 6.35294 3.85266 6.23823 4.09442 6.00882C4.33617 5.77941 4.48655 5.49316 4.54556 5.15006L5.03665 1.76471H3.23834C3.0676 1.76471 2.93184 1.80141 2.83106 1.87482C2.73029 1.94824 2.65509 2.05861 2.60549 2.20594L1.88257 4.62088C1.75412 5.02261 1.80894 5.41184 2.04704 5.78859C2.28515 6.16533 2.67415 6.35345 3.21406 6.35294ZM13.7877 6.35294C14.2566 6.35294 14.631 6.17451 14.9109 5.81765C15.1913 5.46078 15.2607 5.06186 15.1192 4.62088L14.3571 2.17688C14.307 2.02955 14.2315 1.92402 14.1308 1.86029C14.03 1.79657 13.8945 1.76471 13.7243 1.76471H11.9651L12.4562 5.15006C12.5152 5.49316 12.6656 5.77941 12.9074 6.00882C13.1491 6.23823 13.4426 6.35294 13.7877 6.35294ZM3.10833 13.2353H13.8934C14.0339 13.2353 14.1493 13.1912 14.2396 13.103C14.33 13.0148 14.3751 12.9021 14.3751 12.765V7.02053C14.2697 7.05621 14.1694 7.08119 14.0744 7.09547C13.9799 7.11025 13.8843 7.11765 13.7877 7.11765C13.4353 7.11765 13.1251 7.05061 12.8572 6.91653C12.5894 6.78245 12.3351 6.56833 12.0944 6.27418C11.8897 6.52296 11.6372 6.72561 11.337 6.88212C11.0367 7.03863 10.6717 7.11714 10.242 7.11765C9.92976 7.11765 9.63266 7.04653 9.35069 6.90429C9.06873 6.76206 8.78546 6.55176 8.50089 6.27341C8.23876 6.55176 7.94818 6.76206 7.62915 6.90429C7.31063 7.04653 7.00674 7.11765 6.71746 7.11765C6.38903 7.11765 6.06895 7.05647 5.75722 6.93412C5.44549 6.81176 5.17214 6.59153 4.93717 6.27341C4.55235 6.64914 4.21608 6.88365 3.92837 6.97694C3.64119 7.07074 3.40308 7.11765 3.21406 7.11765C3.11746 7.11765 3.02034 7.11025 2.9227 7.09547C2.82453 7.08069 2.72585 7.05571 2.62664 7.02053V12.7642C2.62664 12.9019 2.6718 13.0148 2.76214 13.103C2.85247 13.1912 2.96787 13.2353 3.10833 13.2353Z"/>
</mask>
<path d="M15.1584 6.65576V12.765C15.1584 13.1168 15.0375 13.4107 14.7957 13.6467C14.554 13.8827 14.2532 14.0005 13.8934 14H3.10754C2.74725 14 2.44623 13.8822 2.20447 13.6467C1.96272 13.4112 1.8421 13.1173 1.84262 12.765V6.62671C1.5121 6.38863 1.27034 6.07637 1.11735 5.68994C0.964355 5.30351 0.960961 4.89133 1.10716 4.45341L1.86925 2.00024C1.97368 1.68824 2.14208 1.44353 2.37444 1.26612C2.60732 1.08871 2.89502 1 3.23756 1H13.7329C14.0749 1 14.3616 1.0831 14.5929 1.24929C14.8237 1.41549 14.9928 1.65586 15.1004 1.97041L15.8923 4.45265C16.039 4.89108 16.0358 5.30682 15.8829 5.69988C15.7299 6.09294 15.4881 6.41157 15.1576 6.65576M10.2232 6.35294C10.7261 6.35294 11.1015 6.21529 11.3495 5.94C11.5975 5.66522 11.702 5.38125 11.6628 5.08812L11.1435 1.76471H8.89329V4.97647C8.89329 5.3522 9.02487 5.67541 9.28803 5.94612C9.5512 6.21733 9.86345 6.35294 10.2248 6.35294M6.70023 6.35294C7.12109 6.35294 7.46127 6.21733 7.72079 5.94612C7.9803 5.6749 8.11005 5.35169 8.11005 4.97647V1.76471H5.85904L5.33741 5.147C5.30556 5.38457 5.41181 5.64482 5.65618 5.92776C5.90055 6.21071 6.24909 6.35243 6.70023 6.35294ZM3.21406 6.35294C3.55921 6.35294 3.85266 6.23823 4.09442 6.00882C4.33617 5.77941 4.48655 5.49316 4.54556 5.15006L5.03665 1.76471H3.23834C3.0676 1.76471 2.93184 1.80141 2.83106 1.87482C2.73029 1.94824 2.65509 2.05861 2.60549 2.20594L1.88257 4.62088C1.75412 5.02261 1.80894 5.41184 2.04704 5.78859C2.28515 6.16533 2.67415 6.35345 3.21406 6.35294ZM13.7877 6.35294C14.2566 6.35294 14.631 6.17451 14.9109 5.81765C15.1913 5.46078 15.2607 5.06186 15.1192 4.62088L14.3571 2.17688C14.307 2.02955 14.2315 1.92402 14.1308 1.86029C14.03 1.79657 13.8945 1.76471 13.7243 1.76471H11.9651L12.4562 5.15006C12.5152 5.49316 12.6656 5.77941 12.9074 6.00882C13.1491 6.23823 13.4426 6.35294 13.7877 6.35294ZM3.10833 13.2353H13.8934C14.0339 13.2353 14.1493 13.1912 14.2396 13.103C14.33 13.0148 14.3751 12.9021 14.3751 12.765V7.02053C14.2697 7.05621 14.1694 7.08119 14.0744 7.09547C13.9799 7.11025 13.8843 7.11765 13.7877 7.11765C13.4353 7.11765 13.1251 7.05061 12.8572 6.91653C12.5894 6.78245 12.3351 6.56833 12.0944 6.27418C11.8897 6.52296 11.6372 6.72561 11.337 6.88212C11.0367 7.03863 10.6717 7.11714 10.242 7.11765C9.92976 7.11765 9.63266 7.04653 9.35069 6.90429C9.06873 6.76206 8.78546 6.55176 8.50089 6.27341C8.23876 6.55176 7.94818 6.76206 7.62915 6.90429C7.31063 7.04653 7.00674 7.11765 6.71746 7.11765C6.38903 7.11765 6.06895 7.05647 5.75722 6.93412C5.44549 6.81176 5.17214 6.59153 4.93717 6.27341C4.55235 6.64914 4.21608 6.88365 3.92837 6.97694C3.64119 7.07074 3.40308 7.11765 3.21406 7.11765C3.11746 7.11765 3.02034 7.11025 2.9227 7.09547C2.82453 7.08069 2.72585 7.05571 2.62664 7.02053V12.7642C2.62664 12.9019 2.6718 13.0148 2.76214 13.103C2.85247 13.1912 2.96787 13.2353 3.10833 13.2353Z" fill="black"/>
<path d="M13.8934 14L13.8937 13.8H13.8934V14ZM1.84262 12.765L2.04262 12.7653V12.765H1.84262ZM1.84262 6.62671H2.04262V6.52428L1.95951 6.46442L1.84262 6.62671ZM1.10716 4.45341L1.29691 4.51676L1.29816 4.51274L1.10716 4.45341ZM1.86925 2.00024L1.67955 1.93674L1.67825 1.9409L1.86925 2.00024ZM2.37444 1.26612L2.25324 1.10702L2.25306 1.10716L2.37444 1.26612ZM14.5929 1.24929L14.7097 1.087L14.7096 1.08687L14.5929 1.24929ZM15.1004 1.97041L15.291 1.90962L15.2896 1.9057L15.1004 1.97041ZM15.8923 4.45265L15.7017 4.51344L15.7026 4.51612L15.8923 4.45265ZM11.3495 5.94L11.201 5.80599L11.2009 5.80613L11.3495 5.94ZM11.6628 5.08812L11.8611 5.06163L11.8604 5.05724L11.6628 5.08812ZM11.1435 1.76471L11.3411 1.73383L11.3147 1.56471H11.1435V1.76471ZM8.89329 1.76471V1.56471H8.69328V1.76471H8.89329ZM9.28803 5.94612L9.43157 5.80684L9.43144 5.80671L9.28803 5.94612ZM6.70023 6.35294L6.70001 6.55294H6.70023V6.35294ZM8.11005 1.76471H8.31005V1.56471H8.11005V1.76471ZM5.85904 1.76471V1.56471H5.68752L5.66138 1.73422L5.85904 1.76471ZM5.33741 5.147L5.13971 5.11651L5.13918 5.12042L5.33741 5.147ZM3.21406 6.35294V6.15294L3.21387 6.15294L3.21406 6.35294ZM4.54556 5.15006L4.74273 5.18397L4.74349 5.17877L4.54556 5.15006ZM5.03665 1.76471L5.23457 1.79342L5.26775 1.56471H5.03665V1.76471ZM2.60549 2.20594L2.41584 2.14209L2.41389 2.14858L2.60549 2.20594ZM1.88257 4.62088L2.0731 4.6818L2.07416 4.67824L1.88257 4.62088ZM14.9109 5.81765L14.7536 5.69408L14.7535 5.69422L14.9109 5.81765ZM15.1192 4.62088L14.9283 4.68042L14.9288 4.68199L15.1192 4.62088ZM14.3571 2.17688L14.5481 2.11733L14.5465 2.11246L14.3571 2.17688ZM11.9651 1.76471V1.56471H11.734L11.7672 1.79342L11.9651 1.76471ZM12.4562 5.15006L12.2582 5.17878L12.2591 5.18396L12.4562 5.15006ZM3.10833 13.2353V13.0353V13.2353ZM14.3751 12.765H14.1751H14.3751ZM14.3751 7.02053H14.5751V6.74172L14.311 6.83108L14.3751 7.02053ZM14.0744 7.09547L14.0447 6.89768L14.0435 6.89787L14.0744 7.09547ZM12.0944 6.27418L12.2491 6.14752L12.0948 5.95888L11.9399 6.14711L12.0944 6.27418ZM10.242 7.11765V7.31765L10.2422 7.31765L10.242 7.11765ZM8.50089 6.27341L8.64073 6.13044L8.49502 5.98791L8.35528 6.1363L8.50089 6.27341ZM7.62915 6.90429L7.54771 6.72162L7.5476 6.72167L7.62915 6.90429ZM4.93717 6.27341L5.09805 6.15459L4.96168 5.96996L4.79746 6.13031L4.93717 6.27341ZM3.92837 6.97694L3.86668 6.78669L3.86627 6.78682L3.92837 6.97694ZM2.9227 7.09547L2.95264 6.89772L2.95248 6.8977L2.9227 7.09547ZM2.62664 7.02053L2.69347 6.83203L2.42664 6.73742V7.02053H2.62664ZM14.9584 6.65576V12.765H15.3584V6.65576H14.9584ZM14.9584 12.765C14.9584 13.0654 14.8575 13.3069 14.656 13.5036L14.9354 13.7898C15.2175 13.5144 15.3584 13.1682 15.3584 12.765H14.9584ZM14.656 13.5036C14.4543 13.7006 14.2049 13.8004 13.8937 13.8L13.8932 14.2C14.3015 14.2006 14.6537 14.0649 14.9354 13.7898L14.656 13.5036ZM13.8934 13.8H3.10754V14.2H13.8934V13.8ZM3.10754 13.8C2.79551 13.8 2.54576 13.7 2.34404 13.5034L2.06491 13.79C2.3467 14.0645 2.699 14.2 3.10754 14.2V13.8ZM2.34404 13.5034C2.14285 13.3074 2.04217 13.0662 2.04262 12.7653L1.64262 12.7647C1.64202 13.1684 1.78258 13.5149 2.06491 13.79L2.34404 13.5034ZM2.04262 12.765V6.62671H1.64262V12.765H2.04262ZM1.95951 6.46442C1.66067 6.24916 1.44252 5.96797 1.3033 5.61632L0.93139 5.76356C1.09815 6.18478 1.36352 6.52809 1.72573 6.78899L1.95951 6.46442ZM1.3033 5.61632C1.16959 5.27859 1.16382 4.91529 1.29687 4.51675L0.917458 4.39008C0.758107 4.86738 0.759116 5.32843 0.93139 5.76356L1.3033 5.61632ZM1.29816 4.51274L2.06025 2.05957L1.67825 1.9409L0.916169 4.39408L1.29816 4.51274ZM2.05891 2.06372C2.15229 1.78472 2.29915 1.57524 2.49581 1.42508L2.25306 1.10716C1.98501 1.31182 1.79507 1.59175 1.67959 1.93675L2.05891 2.06372ZM2.49564 1.42521C2.688 1.27867 2.93108 1.2 3.23756 1.2V0.8C2.85897 0.8 2.52664 0.898745 2.25324 1.10702L2.49564 1.42521ZM3.23756 1.2H13.7329V0.8H3.23756V1.2ZM13.7329 1.2C14.0416 1.2 14.2852 1.27454 14.4762 1.41172L14.7096 1.08687C14.4379 0.891661 14.1082 0.8 13.7329 0.8V1.2ZM14.476 1.41159C14.6677 1.54965 14.8147 1.75299 14.9112 2.03513L15.2896 1.9057C15.171 1.55873 14.9796 1.28133 14.7097 1.087L14.476 1.41159ZM14.9099 2.0312L15.7017 4.51343L16.0828 4.39186L15.2909 1.90963L14.9099 2.0312ZM15.7026 4.51612C15.836 4.91478 15.8308 5.28212 15.6965 5.62734L16.0692 5.77243C16.2409 5.33152 16.242 4.86737 16.0819 4.38917L15.7026 4.51612ZM15.6965 5.62734C15.5568 5.98615 15.338 6.27379 15.0387 6.4949L15.2764 6.81662C15.6382 6.54935 15.9029 6.19973 16.0692 5.77243L15.6965 5.62734ZM10.2232 6.55294C10.7616 6.55294 11.2 6.40474 11.4981 6.07387L11.2009 5.80613C11.003 6.02585 10.6905 6.15294 10.2232 6.15294V6.55294ZM11.498 6.07401C11.7746 5.76753 11.9099 5.42719 11.861 5.06163L11.4646 5.1146C11.494 5.33532 11.4205 5.5629 11.201 5.80599L11.498 6.07401ZM11.8604 5.05724L11.3411 1.73383L10.9459 1.79558L11.4652 5.11899L11.8604 5.05724ZM11.1435 1.56471H8.89329V1.96471H11.1435V1.56471ZM8.69328 1.76471V4.97647H9.09329V1.76471H8.69328ZM8.69328 4.97647C8.69328 5.40454 8.84537 5.77769 9.14463 6.08553L9.43144 5.80671C9.20437 5.57313 9.09329 5.29985 9.09329 4.97647H8.69328ZM9.1445 6.08539C9.4434 6.39343 9.80665 6.55294 10.2248 6.55294V6.15294C9.92025 6.15294 9.659 6.04123 9.43157 5.80684L9.1445 6.08539ZM6.70023 6.55294C7.16839 6.55294 7.5633 6.4 7.86529 6.08439L7.57628 5.80785C7.35925 6.03467 7.07379 6.15294 6.70023 6.15294V6.55294ZM7.86529 6.08439C8.1604 5.77597 8.31005 5.40323 8.31005 4.97647H7.91005C7.91005 5.30014 7.80019 5.57384 7.57628 5.80785L7.86529 6.08439ZM8.31005 4.97647V1.76471H7.91005V4.97647H8.31005ZM8.11005 1.56471H5.85904V1.96471H8.11005V1.56471ZM5.66138 1.73422L5.13974 5.11652L5.53507 5.17748L6.0567 1.79519L5.66138 1.73422ZM5.13918 5.12042C5.09633 5.44 5.2438 5.75627 5.50482 6.05849L5.80754 5.79704C5.57983 5.53338 5.51478 5.32914 5.53563 5.17358L5.13918 5.12042ZM5.50482 6.05849C5.79501 6.39449 6.20407 6.55238 6.70001 6.55294L6.70046 6.15294C6.29411 6.15248 6.00609 6.02693 5.80754 5.79704L5.50482 6.05849ZM3.21406 6.55294C3.60842 6.55294 3.95172 6.41994 4.23208 6.1539L3.95675 5.86375C3.75359 6.05653 3.51 6.15294 3.21406 6.15294V6.55294ZM4.23208 6.1539C4.50658 5.89342 4.6767 5.56753 4.74266 5.18396L4.34845 5.11616C4.29641 5.41879 4.16577 5.6654 3.95675 5.86375L4.23208 6.1539ZM4.74349 5.17877L5.23457 1.79342L4.83872 1.73599L4.34763 5.12135L4.74349 5.17877ZM5.03665 1.56471H3.23834V1.96471H5.03665V1.56471ZM3.23834 1.56471C3.0406 1.56471 2.85888 1.60712 2.7133 1.71317L2.94882 2.03648C3.00479 1.99571 3.09459 1.96471 3.23834 1.96471V1.56471ZM2.7133 1.71317C2.57157 1.81642 2.47547 1.96531 2.41594 2.14212L2.79504 2.26976C2.83471 2.1519 2.889 2.08005 2.94882 2.03648L2.7133 1.71317ZM2.41389 2.14858L1.69097 4.56353L2.07416 4.67824L2.79709 2.2633L2.41389 2.14858ZM1.69207 4.55997C1.54447 5.02159 1.61033 5.47194 1.87798 5.89544L2.21611 5.68174C2.00756 5.35175 1.96377 5.02362 2.07306 4.68179L1.69207 4.55997ZM1.87798 5.89544C2.16093 6.34314 2.62248 6.5535 3.21425 6.55294L3.21387 6.15294C2.72583 6.1534 2.40937 5.98753 2.21611 5.68174L1.87798 5.89544ZM13.7877 6.55294C14.3156 6.55294 14.749 6.34815 15.0682 5.94107L14.7535 5.69422C14.513 6.00087 14.1976 6.15294 13.7877 6.15294V6.55294ZM15.0681 5.94121C15.3906 5.53085 15.4709 5.06245 15.3096 4.55977L14.9288 4.68199C15.0505 5.06128 14.992 5.39072 14.7536 5.69408L15.0681 5.94121ZM15.3101 4.56135L14.5481 2.11735L14.1662 2.23642L14.9283 4.68042L15.3101 4.56135ZM14.5465 2.11246C14.4861 1.93519 14.3875 1.786 14.2377 1.69125L14.0239 2.02933C14.0756 2.06204 14.1278 2.1239 14.1678 2.2413L14.5465 2.11246ZM14.2377 1.69125C14.094 1.60041 13.9169 1.56471 13.7243 1.56471V1.96471C13.872 1.96471 13.966 1.99273 14.0239 2.02933L14.2377 1.69125ZM13.7243 1.56471H11.9651V1.96471H13.7243V1.56471ZM11.7672 1.79342L12.2583 5.17877L12.6541 5.12135L12.1631 1.73599L11.7672 1.79342ZM12.2591 5.18396C12.3251 5.56753 12.4952 5.89342 12.7697 6.1539L13.045 5.86375C12.836 5.6654 12.7054 5.41879 12.6533 5.11616L12.2591 5.18396ZM12.7697 6.1539C13.05 6.41994 13.3934 6.55294 13.7877 6.55294V6.15294C13.4918 6.15294 13.2482 6.05653 13.045 5.86375L12.7697 6.1539ZM3.10833 13.4353H13.8934V13.0353H3.10833V13.4353ZM13.8934 13.4353C14.0797 13.4353 14.2473 13.375 14.3794 13.2461L14.0999 12.9599C14.0513 13.0074 13.9881 13.0353 13.8934 13.0353V13.4353ZM14.3794 13.2461C14.5118 13.1168 14.5751 12.9509 14.5751 12.765H14.1751C14.1751 12.8534 14.1482 12.9128 14.0999 12.9599L14.3794 13.2461ZM14.5751 12.765V7.02053H14.1751V12.765H14.5751ZM14.311 6.83108C14.215 6.86356 14.1263 6.88542 14.0447 6.89769L14.1041 7.29325C14.2125 7.27697 14.3243 7.24887 14.4392 7.20998L14.311 6.83108ZM14.0435 6.89787C13.9593 6.91104 13.8741 6.91765 13.7877 6.91765V7.31765C13.8946 7.31765 14.0004 7.30947 14.1053 7.29307L14.0435 6.89787ZM13.7877 6.91765C13.4609 6.91765 13.1823 6.85559 12.9467 6.73768L12.7677 7.09538C13.0679 7.24562 13.4096 7.31765 13.7877 7.31765V6.91765ZM12.9467 6.73768C12.7099 6.61912 12.4766 6.42553 12.2491 6.14752L11.9396 6.40084C12.1935 6.71113 12.4689 6.94579 12.7677 7.09538L12.9467 6.73768ZM11.9399 6.14711C11.7532 6.37408 11.5222 6.56004 11.2445 6.70477L11.4294 7.05947C11.7523 6.89118 12.0262 6.67184 12.2488 6.40124L11.9399 6.14711ZM11.2445 6.70477C10.9794 6.84297 10.6478 6.91716 10.2418 6.91765L10.2422 7.31765C10.6957 7.31711 11.0941 7.23428 11.4294 7.05947L11.2445 6.70477ZM10.242 6.91765C9.96142 6.91765 9.69513 6.85404 9.44077 6.72573L9.26062 7.08286C9.57018 7.23902 9.89811 7.31765 10.242 7.31765V6.91765ZM9.44077 6.72573C9.18117 6.59477 8.91428 6.398 8.64073 6.13044L8.36104 6.41639C8.65664 6.70553 8.95628 6.92934 9.26062 7.08286L9.44077 6.72573ZM8.35528 6.1363C8.10959 6.3972 7.84035 6.59116 7.54771 6.72162L7.71059 7.08696C8.05602 6.93296 8.36793 6.70633 8.64649 6.41052L8.35528 6.1363ZM7.5476 6.72167C7.24956 6.85476 6.97347 6.91765 6.71746 6.91765V7.31765C7.04001 7.31765 7.3717 7.23829 7.7107 7.08691L7.5476 6.72167ZM6.71746 6.91765C6.41453 6.91765 6.11921 6.86134 5.83029 6.74794L5.68415 7.12029C6.01869 7.2516 6.36352 7.31765 6.71746 7.31765V6.91765ZM5.83029 6.74794C5.5595 6.64166 5.31477 6.44799 5.09805 6.15459L4.7763 6.39224C5.02952 6.73506 5.33149 6.98187 5.68415 7.12029L5.83029 6.74794ZM4.79746 6.13031C4.42005 6.49879 4.11044 6.70765 3.86668 6.78669L3.99006 7.16719C4.32172 7.05964 4.68465 6.79948 5.07689 6.41651L4.79746 6.13031ZM3.86627 6.78682C3.58865 6.8775 3.37324 6.91765 3.21406 6.91765V7.31765C3.43293 7.31765 3.69372 7.26398 3.99047 7.16706L3.86627 6.78682ZM3.21406 6.91765C3.12771 6.91765 3.04059 6.91104 2.95264 6.89772L2.89276 7.29322C3.00009 7.30947 3.10722 7.31765 3.21406 7.31765V6.91765ZM2.95248 6.8977C2.86767 6.88493 2.78138 6.86319 2.69347 6.83203L2.5598 7.20903C2.67032 7.24822 2.7814 7.27644 2.89291 7.29324L2.95248 6.8977ZM2.42664 7.02053V12.7642H2.82664V7.02053H2.42664ZM2.42664 12.7642C2.42664 12.9504 2.48985 13.1167 2.62242 13.2461L2.90185 12.9599C2.85375 12.9129 2.82664 12.8534 2.82664 12.7642H2.42664ZM2.62242 13.2461C2.75446 13.375 2.92206 13.4353 3.10833 13.4353V13.0353C3.01367 13.0353 2.95048 13.0074 2.90185 12.9599L2.62242 13.2461Z" fill="black" mask="url(#path-1-outside-1_2211_620)"/>
</svg>
