<svg width="15" height="14" viewBox="0 0 15 14" fill="none" xmlns="http://www.w3.org/2000/svg">
<path d="M15 4.5219C15 9.62727 8.04978 13.7597 7.75379 13.9304C7.67578 13.9761 7.58858 14 7.5 14C7.41142 14 7.32422 13.9761 7.2462 13.9304C6.95022 13.7597 0 9.62727 0 4.5219C0.00124067 3.32303 0.439058 2.17365 1.2174 1.32593C1.99574 0.478198 3.05104 0.00135127 4.15179 0C5.5346 0 6.74531 0.647653 7.5 1.74239C8.25469 0.647653 9.4654 0 10.8482 0C11.949 0.00135127 13.0043 0.478198 13.7826 1.32593C14.5609 2.17365 14.9988 3.32303 15 4.5219Z" fill="black"/>
</svg>
