<svg width="27" height="26" viewBox="0 0 27 26" fill="none" xmlns="http://www.w3.org/2000/svg">
<path d="M1 13.0979C1 19.7796 6.59625 25.1958 13.5 25.1958C20.4037 25.1958 26 19.7796 26 13.0979C26 6.41623 20.4037 1 13.5 1C6.59625 1 1 6.41623 1 13.0979Z" stroke="black" stroke-width="1.5" stroke-linecap="round" stroke-linejoin="round"/>
<path d="M14.7496 1.06055C14.7496 1.06055 18.4996 5.83921 18.4996 13.0979C18.4996 20.3567 14.7496 25.1354 14.7496 25.1354M12.2496 25.1354C12.2496 25.1354 8.49961 20.3567 8.49961 13.0979C8.49961 5.83921 12.2496 1.06055 12.2496 1.06055M1.78711 17.3322H25.2121M1.78711 8.86369H25.2121" stroke="black" stroke-width="1.5" stroke-linecap="round" stroke-linejoin="round"/>
</svg>
