<svg width="20" height="20" viewBox="0 0 20 20" fill="none" xmlns="http://www.w3.org/2000/svg">
<path d="M1 9.67831C1 14.4713 5.01442 18.3566 9.96676 18.3566C14.9191 18.3566 18.9335 14.4713 18.9335 9.67831C18.9335 4.88528 14.9191 1 9.96676 1C5.01442 1 1 4.88528 1 9.67831Z" stroke="white" stroke-width="1.5" stroke-linecap="round" stroke-linejoin="round"/>
<path d="M10.863 1.04346C10.863 1.04346 13.553 4.47139 13.553 9.67838C13.553 14.8854 10.863 18.3133 10.863 18.3133M9.06963 18.3133C9.06963 18.3133 6.3796 14.8854 6.3796 9.67838C6.3796 4.47139 9.06963 1.04346 9.06963 1.04346M1.56445 12.7158H18.3682M1.56445 6.64097H18.3682" stroke="white" stroke-width="1.5" stroke-linecap="round" stroke-linejoin="round"/>
</svg>
