<svg width="16" height="16" viewBox="0 0 16 16" fill="none" xmlns="http://www.w3.org/2000/svg">
<path d="M2.55556 8H1L8 1L15 8H13.4444M2.55556 8V13.4444C2.55556 13.857 2.71944 14.2527 3.01117 14.5444C3.30289 14.8361 3.69855 15 4.11111 15H11.8889C12.3014 15 12.6971 14.8361 12.9888 14.5444C13.2806 14.2527 13.4444 13.857 13.4444 13.4444V8" stroke="black" stroke-linecap="round" stroke-linejoin="round"/>
<path d="M5.66699 15.0001V10.3334C5.66699 9.92083 5.83088 9.52517 6.1226 9.23344C6.41433 8.94172 6.80999 8.77783 7.22255 8.77783H8.7781C9.19066 8.77783 9.58632 8.94172 9.87805 9.23344C10.1698 9.52517 10.3337 9.92083 10.3337 10.3334V15.0001" stroke="black" stroke-linecap="round" stroke-linejoin="round"/>
</svg>
