<svg width="15" height="15" viewBox="0 0 15 15" fill="none" xmlns="http://www.w3.org/2000/svg">
<mask id="path-1-inside-1_2211_616" fill="white">
<path d="M9.13241 9.48417C8.33483 10.6085 6.66563 10.6078 5.86897 9.48283L4.23724 7.17857C3.70323 6.54807 3.35933 5.77883 3.24561 4.96044C3.13188 4.14205 3.253 3.30819 3.59487 2.55598C3.93673 1.80376 4.48527 1.16415 5.17659 0.711638C5.86792 0.259124 6.67358 0.0123307 7.49974 0C8.64496 0.0113171 9.73902 0.476032 10.5423 1.29236C11.3456 2.1087 11.7926 3.2101 11.7855 4.35536C11.7859 5.35443 11.4458 6.32381 10.8212 7.10357L9.13241 9.48417ZM7.49974 1.07143C6.63823 1.08132 5.81586 1.4327 5.21321 2.04841C4.61056 2.66413 4.27688 3.49384 4.28545 4.35536C4.28951 5.14161 4.57235 5.90092 5.08367 6.49821L6.66692 8.90995C7.06105 9.51032 7.94074 9.51184 8.33694 8.91283L9.9801 6.42857C10.4516 5.84006 10.7102 5.10943 10.714 4.35536C10.7226 3.49384 10.3889 2.66413 9.78627 2.04841C9.18362 1.4327 8.36125 1.08132 7.49974 1.07143Z"/>
</mask>
<path d="M9.13241 9.48417C8.33483 10.6085 6.66563 10.6078 5.86897 9.48283L4.23724 7.17857C3.70323 6.54807 3.35933 5.77883 3.24561 4.96044C3.13188 4.14205 3.253 3.30819 3.59487 2.55598C3.93673 1.80376 4.48527 1.16415 5.17659 0.711638C5.86792 0.259124 6.67358 0.0123307 7.49974 0C8.64496 0.0113171 9.73902 0.476032 10.5423 1.29236C11.3456 2.1087 11.7926 3.2101 11.7855 4.35536C11.7859 5.35443 11.4458 6.32381 10.8212 7.10357L9.13241 9.48417ZM7.49974 1.07143C6.63823 1.08132 5.81586 1.4327 5.21321 2.04841C4.61056 2.66413 4.27688 3.49384 4.28545 4.35536C4.28951 5.14161 4.57235 5.90092 5.08367 6.49821L6.66692 8.90995C7.06105 9.51032 7.94074 9.51184 8.33694 8.91283L9.9801 6.42857C10.4516 5.84006 10.7102 5.10943 10.714 4.35536C10.7226 3.49384 10.3889 2.66413 9.78627 2.04841C9.18362 1.4327 8.36125 1.08132 7.49974 1.07143Z" fill="black"/>
<path d="M4.23724 7.17857L5.46139 6.3117L5.42385 6.25869L5.38186 6.20912L4.23724 7.17857ZM7.49974 0L7.51456 -1.49993L7.49596 -1.50011L7.47736 -1.49983L7.49974 0ZM11.7855 4.35536L10.2855 4.346L10.2855 4.35602L11.7855 4.35536ZM10.8212 7.10357L9.65044 6.16582L9.62307 6.19998L9.59774 6.23569L10.8212 7.10357ZM7.49974 1.07143L7.51696 -0.428472L7.49974 -0.42867L7.48252 -0.428472L7.49974 1.07143ZM4.28545 4.35536L5.78545 4.34763L5.78538 4.34043L4.28545 4.35536ZM5.08367 6.49821L6.33761 5.67503L6.28523 5.59525L6.22317 5.52274L5.08367 6.49821ZM9.9801 6.42857L8.80944 5.49072L8.76671 5.54406L8.729 5.60106L9.9801 6.42857ZM10.714 4.35536L9.21408 4.34043L9.21405 4.34779L10.714 4.35536ZM6.66692 8.90995L5.41298 9.73313L6.66692 8.90995ZM9.13241 9.48417L7.90898 8.61629L9.13241 9.48417ZM7.09312 8.61596L5.46139 6.3117L3.01309 8.04544L4.64482 10.3497L7.09312 8.61596ZM5.38186 6.20912C5.03154 5.7955 4.80594 5.29086 4.73133 4.75398L1.75989 5.1669C1.91273 6.2668 2.37492 7.30065 3.09262 8.14803L5.38186 6.20912ZM4.73133 4.75398C4.65672 4.2171 4.73618 3.67007 4.96045 3.1766L2.22928 1.93535C1.76982 2.94631 1.60704 4.067 1.75989 5.1669L4.73133 4.75398ZM4.96045 3.1766C5.18472 2.68314 5.54457 2.26354 5.9981 1.96668L4.35509 -0.543406C3.42597 0.0647641 2.68874 0.924387 2.22928 1.93535L4.96045 3.1766ZM5.9981 1.96668C6.45162 1.66982 6.98015 1.50792 7.52213 1.49983L7.47736 -1.49983C6.36701 -1.48326 5.28422 -1.15158 4.35509 -0.543406L5.9981 1.96668ZM7.48492 1.49993C8.23328 1.50732 8.94821 1.811 9.47312 2.34444L11.6115 0.240287C10.5298 -0.858932 9.05664 -1.48469 7.51456 -1.49993L7.48492 1.49993ZM9.47312 2.34444C9.99804 2.87789 10.2902 3.59762 10.2855 4.346L13.2854 4.36471C13.295 2.82259 12.6931 1.33951 11.6115 0.240287L9.47312 2.34444ZM10.2855 4.35602C10.2857 5.01394 10.0618 5.65231 9.65044 6.16582L11.9919 8.04133C12.8298 6.9953 13.286 5.69492 13.2855 4.3547L10.2855 4.35602ZM9.59774 6.23569L7.90898 8.61629L10.3558 10.3521L12.0446 7.97145L9.59774 6.23569ZM7.48252 -0.428472C6.22361 -0.414016 5.02189 0.099451 4.14124 0.999181L6.28518 3.09765C6.60984 2.76595 7.05286 2.57666 7.51696 2.57133L7.48252 -0.428472ZM4.14124 0.999181C3.2606 1.89891 2.773 3.11136 2.78553 4.37028L5.78538 4.34043C5.78076 3.87632 5.96052 3.42934 6.28518 3.09765L4.14124 0.999181ZM2.78547 4.36309C2.79136 5.50442 3.20194 6.60665 3.94417 7.47369L6.22317 5.52274C5.94277 5.19519 5.78766 4.77879 5.78543 4.34763L2.78547 4.36309ZM3.82973 7.3214L5.41298 9.73313L7.92086 8.08676L6.33761 5.67503L3.82973 7.3214ZM9.58803 9.74034L11.2312 7.25608L8.729 5.60106L7.08585 8.08532L9.58803 9.74034ZM11.1508 7.36643C11.8338 6.51384 12.2085 5.45536 12.214 4.36292L9.21405 4.34779C9.21195 4.7635 9.06936 5.16628 8.80944 5.49072L11.1508 7.36643ZM12.214 4.37028C12.2265 3.11135 11.7389 1.89891 10.8582 0.999181L8.7143 3.09765C9.03896 3.42934 9.21872 3.87632 9.2141 4.34043L12.214 4.37028ZM10.8582 0.999181C9.97759 0.0994511 8.77587 -0.414016 7.51696 -0.428472L7.48252 2.57133C7.94662 2.57666 8.38965 2.76595 8.7143 3.09765L10.8582 0.999181ZM5.41298 9.73313C6.3983 11.2341 8.59753 11.2379 9.58803 9.74034L7.08585 8.08532C7.28395 7.78582 7.72379 7.78658 7.92086 8.08676L5.41298 9.73313ZM4.64482 10.3497C6.03897 12.3184 8.96007 12.3196 10.3558 10.3521L7.90898 8.61629C7.70958 8.89738 7.29228 8.8972 7.09312 8.61596L4.64482 10.3497Z" fill="black" mask="url(#path-1-inside-1_2211_616)"/>
<path d="M7.50014 4.82157C8.09187 4.82157 8.57157 4.34187 8.57157 3.75014C8.57157 3.15841 8.09187 2.67871 7.50014 2.67871C6.90841 2.67871 6.42871 3.15841 6.42871 3.75014C6.42871 4.34187 6.90841 4.82157 7.50014 4.82157Z" fill="black"/>
<mask id="path-4-inside-2_2211_616" fill="white">
<path d="M13.9286 5.35693H13.3929C13.097 5.35693 12.8571 5.59678 12.8571 5.89265C12.8571 6.18851 13.097 6.42836 13.3929 6.42836H13.9286V13.9284H1.07143V6.42836H1.60714C1.90301 6.42836 2.14286 6.18851 2.14286 5.89265C2.14286 5.59678 1.90301 5.35693 1.60714 5.35693H1.07143C0.787268 5.35693 0.514746 5.46982 0.313814 5.67075C0.112882 5.87168 0 6.1442 0 6.42836V13.9284C0 14.2125 0.112882 14.485 0.313814 14.686C0.514746 14.8869 0.787268 14.9998 1.07143 14.9998H13.9286C14.2127 14.9998 14.4853 14.8869 14.6862 14.686C14.8871 14.485 15 14.2125 15 13.9284V6.42836C15 6.1442 14.8871 5.87168 14.6862 5.67075C14.4853 5.46982 14.2127 5.35693 13.9286 5.35693Z"/>
</mask>
<path d="M13.9286 5.35693H13.3929C13.097 5.35693 12.8571 5.59678 12.8571 5.89265C12.8571 6.18851 13.097 6.42836 13.3929 6.42836H13.9286V13.9284H1.07143V6.42836H1.60714C1.90301 6.42836 2.14286 6.18851 2.14286 5.89265C2.14286 5.59678 1.90301 5.35693 1.60714 5.35693H1.07143C0.787268 5.35693 0.514746 5.46982 0.313814 5.67075C0.112882 5.87168 0 6.1442 0 6.42836V13.9284C0 14.2125 0.112882 14.485 0.313814 14.686C0.514746 14.8869 0.787268 14.9998 1.07143 14.9998H13.9286C14.2127 14.9998 14.4853 14.8869 14.6862 14.686C14.8871 14.485 15 14.2125 15 13.9284V6.42836C15 6.1442 14.8871 5.87168 14.6862 5.67075C14.4853 5.46982 14.2127 5.35693 13.9286 5.35693Z" fill="black"/>
<path d="M13.9286 6.42836H15.4286V4.92836H13.9286V6.42836ZM13.9286 13.9284V15.4284H15.4286V13.9284H13.9286ZM1.07143 13.9284H-0.428571V15.4284H1.07143V13.9284ZM1.07143 6.42836V4.92836H-0.428571V6.42836H1.07143ZM0 6.42836H-1.5H0ZM0 13.9284H-1.5H0ZM13.9286 3.85693H13.3929V6.85693H13.9286V3.85693ZM13.3929 7.92836H13.9286V4.92836H13.3929V7.92836ZM12.4286 6.42836V13.9284H15.4286V6.42836H12.4286ZM13.9286 12.4284H1.07143V15.4284H13.9286V12.4284ZM2.57143 13.9284V6.42836H-0.428571V13.9284H2.57143ZM1.07143 7.92836H1.60714V4.92836H1.07143V7.92836ZM1.60714 3.85693H1.07143V6.85693H1.60714V3.85693ZM1.07143 3.85693C0.389443 3.85693 -0.26461 4.12785 -0.746846 4.61009L1.37447 6.73141C1.2941 6.81178 1.18509 6.85693 1.07143 6.85693V3.85693ZM-0.746846 4.61009C-1.22908 5.09232 -1.5 5.74638 -1.5 6.42836H1.5C1.5 6.54203 1.45485 6.65104 1.37447 6.73141L-0.746846 4.61009ZM-1.5 6.42836V13.9284H1.5V6.42836H-1.5ZM-1.5 13.9284C-1.5 14.6103 -1.22908 15.2644 -0.746846 15.7466L1.37447 13.6253C1.45485 13.7057 1.5 13.8147 1.5 13.9284H-1.5ZM-0.746846 15.7466C-0.26461 16.2289 0.389443 16.4998 1.07143 16.4998V13.4998C1.18509 13.4998 1.2941 13.5449 1.37447 13.6253L-0.746846 15.7466ZM1.07143 16.4998H13.9286V13.4998H1.07143V16.4998ZM13.9286 16.4998C14.6106 16.4998 15.2646 16.2289 15.7468 15.7466L13.6255 13.6253C13.7059 13.5449 13.8149 13.4998 13.9286 13.4998V16.4998ZM15.7468 15.7466C16.2291 15.2644 16.5 14.6103 16.5 13.9284H13.5C13.5 13.8147 13.5452 13.7057 13.6255 13.6253L15.7468 15.7466ZM16.5 13.9284V6.42836H13.5V13.9284H16.5ZM16.5 6.42836C16.5 5.74638 16.2291 5.09232 15.7468 4.61009L13.6255 6.73141C13.5452 6.65104 13.5 6.54203 13.5 6.42836H16.5ZM15.7468 4.61009C15.2646 4.12785 14.6106 3.85693 13.9286 3.85693V6.85693C13.8149 6.85693 13.7059 6.81178 13.6255 6.73141L15.7468 4.61009ZM3.64286 5.89265C3.64286 4.76835 2.73144 3.85693 1.60714 3.85693V6.85693C1.07458 6.85693 0.642857 6.42521 0.642857 5.89265H3.64286ZM1.60714 7.92836C2.73144 7.92836 3.64286 7.01694 3.64286 5.89265H0.642857C0.642857 5.36009 1.07458 4.92836 1.60714 4.92836V7.92836ZM11.3571 5.89265C11.3571 7.01694 12.2686 7.92836 13.3929 7.92836V4.92836C13.9254 4.92836 14.3571 5.36009 14.3571 5.89265H11.3571ZM13.3929 3.85693C12.2686 3.85693 11.3571 4.76835 11.3571 5.89265H14.3571C14.3571 6.42521 13.9254 6.85693 13.3929 6.85693V3.85693Z" fill="black" mask="url(#path-4-inside-2_2211_616)"/>
</svg>
