<svg width="15" height="13" viewBox="0 0 15 13" fill="none" xmlns="http://www.w3.org/2000/svg">
<mask id="path-1-inside-1_2211_615" fill="white">
<path fill-rule="evenodd" clip-rule="evenodd" d="M7.47 0.0501352C7.55415 0.0913674 7.62502 0.155418 7.67453 0.234984C7.72404 0.314549 7.75019 0.406425 7.75 0.500135V12.5001C7.75006 12.5938 7.72384 12.6855 7.6743 12.765C7.62477 12.8445 7.55392 12.9084 7.46981 12.9496C7.38571 12.9907 7.29175 13.0075 7.19861 12.9978C7.10547 12.9882 7.01691 12.9526 6.943 12.8951L3.221 10.0001H1.5C1.10218 10.0001 0.720644 9.8421 0.43934 9.5608C0.158035 9.27949 0 8.89796 0 8.50014L0 4.50014C0 4.10231 0.158035 3.72078 0.43934 3.43947C0.720644 3.15817 1.10218 3.00014 1.5 3.00014H3.221L6.943 0.105135C7.01697 0.047678 7.10559 0.0121519 7.19876 0.00260463C7.29193 -0.00694261 7.38592 0.00987289 7.47 0.0511352M6.75 1.52314L3.7 3.89514C3.61218 3.96329 3.50416 4.00023 3.393 4.00014H1.5C1.36739 4.00014 1.24021 4.05281 1.14645 4.14658C1.05268 4.24035 1 4.36753 1 4.50014V8.50014C1 8.63274 1.05268 8.75992 1.14645 8.85369C1.24021 8.94746 1.36739 9.00014 1.5 9.00014H3.393C3.50416 9.00004 3.61218 9.03698 3.7 9.10513L6.75 11.4781V1.52314ZM10.278 2.84914C10.3217 2.81995 10.3708 2.79968 10.4223 2.78946C10.4739 2.77925 10.527 2.77929 10.5785 2.7896C10.6301 2.79991 10.6791 2.82028 10.7227 2.84954C10.7664 2.8788 10.8039 2.91638 10.833 2.96014C11.5289 4.00977 11.9001 5.24124 11.9001 6.50064C11.9001 7.76003 11.5289 8.9915 10.833 10.0411C10.7734 10.1274 10.6823 10.1869 10.5793 10.2066C10.4763 10.2264 10.3697 10.205 10.2823 10.1469C10.195 10.0888 10.134 9.99873 10.1124 9.8961C10.0908 9.79346 10.1104 9.68646 10.167 9.59813C10.7754 8.67986 11.0999 7.6027 11.0999 6.50114C11.0999 5.39957 10.7754 4.32241 10.167 3.40413C10.1378 3.36041 10.1175 3.31137 10.1073 3.25981C10.0971 3.20824 10.0972 3.15517 10.1075 3.10363C10.1178 3.05208 10.1381 3.00308 10.1674 2.95941C10.1967 2.91574 10.2342 2.87827 10.278 2.84914ZM12.678 0.431135C12.6093 0.350244 12.5113 0.299954 12.4055 0.291327C12.2998 0.2827 12.1949 0.316444 12.114 0.385135C12.0331 0.453826 11.9828 0.551838 11.9742 0.657608C11.9656 0.763379 11.9993 0.868244 12.068 0.949135C13.3799 2.50165 14.0996 4.46856 14.0996 6.50114C14.0996 8.53371 13.3799 10.5006 12.068 12.0531C11.9993 12.134 11.9656 12.2389 11.9742 12.3447C11.9828 12.4504 12.0331 12.5484 12.114 12.6171C12.1949 12.6858 12.2998 12.7196 12.4055 12.7109C12.5113 12.7023 12.6093 12.652 12.678 12.5711C14.1128 10.874 14.9 8.72348 14.9 6.50114C14.9 4.27879 14.1128 2.12828 12.678 0.431135Z"/>
</mask>
<path fill-rule="evenodd" clip-rule="evenodd" d="M7.47 0.0501352C7.55415 0.0913674 7.62502 0.155418 7.67453 0.234984C7.72404 0.314549 7.75019 0.406425 7.75 0.500135V12.5001C7.75006 12.5938 7.72384 12.6855 7.6743 12.765C7.62477 12.8445 7.55392 12.9084 7.46981 12.9496C7.38571 12.9907 7.29175 13.0075 7.19861 12.9978C7.10547 12.9882 7.01691 12.9526 6.943 12.8951L3.221 10.0001H1.5C1.10218 10.0001 0.720644 9.8421 0.43934 9.5608C0.158035 9.27949 0 8.89796 0 8.50014L0 4.50014C0 4.10231 0.158035 3.72078 0.43934 3.43947C0.720644 3.15817 1.10218 3.00014 1.5 3.00014H3.221L6.943 0.105135C7.01697 0.047678 7.10559 0.0121519 7.19876 0.00260463C7.29193 -0.00694261 7.38592 0.00987289 7.47 0.0511352M6.75 1.52314L3.7 3.89514C3.61218 3.96329 3.50416 4.00023 3.393 4.00014H1.5C1.36739 4.00014 1.24021 4.05281 1.14645 4.14658C1.05268 4.24035 1 4.36753 1 4.50014V8.50014C1 8.63274 1.05268 8.75992 1.14645 8.85369C1.24021 8.94746 1.36739 9.00014 1.5 9.00014H3.393C3.50416 9.00004 3.61218 9.03698 3.7 9.10513L6.75 11.4781V1.52314ZM10.278 2.84914C10.3217 2.81995 10.3708 2.79968 10.4223 2.78946C10.4739 2.77925 10.527 2.77929 10.5785 2.7896C10.6301 2.79991 10.6791 2.82028 10.7227 2.84954C10.7664 2.8788 10.8039 2.91638 10.833 2.96014C11.5289 4.00977 11.9001 5.24124 11.9001 6.50064C11.9001 7.76003 11.5289 8.9915 10.833 10.0411C10.7734 10.1274 10.6823 10.1869 10.5793 10.2066C10.4763 10.2264 10.3697 10.205 10.2823 10.1469C10.195 10.0888 10.134 9.99873 10.1124 9.8961C10.0908 9.79346 10.1104 9.68646 10.167 9.59813C10.7754 8.67986 11.0999 7.6027 11.0999 6.50114C11.0999 5.39957 10.7754 4.32241 10.167 3.40413C10.1378 3.36041 10.1175 3.31137 10.1073 3.25981C10.0971 3.20824 10.0972 3.15517 10.1075 3.10363C10.1178 3.05208 10.1381 3.00308 10.1674 2.95941C10.1967 2.91574 10.2342 2.87827 10.278 2.84914ZM12.678 0.431135C12.6093 0.350244 12.5113 0.299954 12.4055 0.291327C12.2998 0.2827 12.1949 0.316444 12.114 0.385135C12.0331 0.453826 11.9828 0.551838 11.9742 0.657608C11.9656 0.763379 11.9993 0.868244 12.068 0.949135C13.3799 2.50165 14.0996 4.46856 14.0996 6.50114C14.0996 8.53371 13.3799 10.5006 12.068 12.0531C11.9993 12.134 11.9656 12.2389 11.9742 12.3447C11.9828 12.4504 12.0331 12.5484 12.114 12.6171C12.1949 12.6858 12.2998 12.7196 12.4055 12.7109C12.5113 12.7023 12.6093 12.652 12.678 12.5711C14.1128 10.874 14.9 8.72348 14.9 6.50114C14.9 4.27879 14.1128 2.12828 12.678 0.431135Z" fill="black"/>
<path d="M7.75 0.500135L6.25 0.497133V0.500135H7.75ZM7.75 12.5001H6.25L6.25 12.5012L7.75 12.5001ZM6.943 12.8951L7.864 11.7112L7.86393 11.7111L6.943 12.8951ZM3.221 10.0001L4.14193 8.81612L3.73568 8.50014H3.221V10.0001ZM1.5 10.0001V11.5001V10.0001ZM0 8.50014H-1.5H0ZM0 4.50014H-1.5H0ZM1.5 3.00014V1.50014V3.00014ZM3.221 3.00014V4.50014H3.73568L4.14193 4.18415L3.221 3.00014ZM6.943 0.105135L6.02282 -1.07946L6.02207 -1.07888L6.943 0.105135ZM6.75 1.52314H8.25V-1.54365L5.82914 0.339065L6.75 1.52314ZM3.7 3.89514L4.61966 5.08014L4.62086 5.07921L3.7 3.89514ZM3.393 4.00014L3.39434 2.50014H3.393V4.00014ZM1 4.50014H-0.5H1ZM1 8.50014H-0.5H1ZM3.393 9.00014V10.5001L3.39434 10.5001L3.393 9.00014ZM3.7 9.10513L4.6211 7.92125L4.61966 7.92014L3.7 9.10513ZM6.75 11.4781L5.8289 12.662L8.25 14.5457V11.4781H6.75ZM10.278 2.84914L11.1094 4.09766L11.1107 4.09676L10.278 2.84914ZM10.833 2.96014L12.0832 2.13124L12.0815 2.12876L10.833 2.96014ZM11.9001 6.50064H13.4001H11.9001ZM10.833 10.0411L12.0672 10.8936L12.0753 10.8819L12.0832 10.87L10.833 10.0411ZM10.167 9.59813L8.91658 8.76962L8.91009 8.77941L8.90375 8.78931L10.167 9.59813ZM11.0999 6.50114H9.59992H11.0999ZM10.167 3.40413L11.4174 2.57561L11.4146 2.57141L10.167 3.40413ZM12.678 0.431135L13.8235 -0.537278L13.8214 -0.539793L12.678 0.431135ZM12.068 0.949135L13.2137 -0.0190146L13.2114 -0.0217932L12.068 0.949135ZM12.068 12.0531L13.2114 13.0241L13.2137 13.0213L12.068 12.0531ZM12.678 12.5711L13.8214 13.5421L13.8235 13.5395L12.678 12.5711ZM6.81 1.39713C6.6417 1.31467 6.49996 1.18657 6.40094 1.02744L8.94811 -0.557469C8.75008 -0.87573 8.4666 -1.13193 8.13 -1.29686L6.81 1.39713ZM6.40094 1.02744C6.30193 0.868308 6.24963 0.684555 6.25 0.497133L9.25 0.503137C9.25075 0.128295 9.14614 -0.239211 8.94811 -0.557469L6.40094 1.02744ZM6.25 0.500135V12.5001H9.25V0.500135H6.25ZM6.25 12.5012C6.24987 12.3139 6.30233 12.1304 6.4014 11.9715L8.94721 13.5585C9.14535 13.2407 9.25026 12.8736 9.25 12.4991L6.25 12.5012ZM6.4014 11.9715C6.50047 11.8125 6.64217 11.6846 6.81037 11.6023L8.12926 14.2968C8.46566 14.1322 8.74907 13.8764 8.94721 13.5585L6.4014 11.9715ZM6.81037 11.6023C6.97858 11.52 7.16651 11.4865 7.35278 11.5058L7.04443 14.4899C7.41698 14.5284 7.79285 14.4615 8.12926 14.2968L6.81037 11.6023ZM7.35278 11.5058C7.53905 11.525 7.71618 11.5962 7.864 11.7112L6.022 14.0791C6.31763 14.3091 6.67189 14.4514 7.04443 14.4899L7.35278 11.5058ZM7.86393 11.7111L4.14193 8.81612L2.30007 11.1841L6.02207 14.0791L7.86393 11.7111ZM3.221 8.50014H1.5V11.5001H3.221V8.50014ZM1.5 8.50014L-0.62132 10.6215C-0.0587109 11.1841 0.704351 11.5001 1.5 11.5001V8.50014ZM1.5 8.50014H-1.5C-1.5 9.29578 -1.18393 10.0588 -0.62132 10.6215L1.5 8.50014ZM1.5 8.50014V4.50014H-1.5V8.50014H1.5ZM1.5 4.50014V4.50013L-0.62132 2.37881C-1.18393 2.94142 -1.5 3.70449 -1.5 4.50014H1.5ZM1.5 4.50013V4.50014V1.50014C0.704351 1.50014 -0.0587109 1.81621 -0.62132 2.37881L1.5 4.50013ZM1.5 4.50014H3.221V1.50014H1.5V4.50014ZM4.14193 4.18415L7.86393 1.28915L6.02207 -1.07888L2.30007 1.81612L4.14193 4.18415ZM7.86318 1.28973C7.71525 1.40464 7.53801 1.4757 7.35166 1.49479L7.04586 -1.48958C6.67316 -1.45139 6.31869 -1.30929 6.02282 -1.07946L7.86318 1.28973ZM7.35166 1.49479C7.16531 1.51389 6.97735 1.48025 6.80918 1.39773L8.13082 -1.29546C7.79449 -1.46051 7.41856 -1.52777 7.04586 -1.48958L7.35166 1.49479ZM5.82914 0.339065L2.77914 2.71107L4.62086 5.07921L7.67086 2.70721L5.82914 0.339065ZM2.78034 2.71014C2.95597 2.57383 3.17202 2.49994 3.39434 2.50014L3.39166 5.50013C3.8363 5.50053 4.2684 5.35275 4.61966 5.08013L2.78034 2.71014ZM3.393 2.50014H1.5V5.50014H3.393V2.50014ZM1.5 2.50014C0.969566 2.50014 0.460859 2.71085 0.0857864 3.08592L2.20711 5.20724C2.01957 5.39478 1.76522 5.50014 1.5 5.50014V2.50014ZM0.0857864 3.08592C-0.289286 3.46099 -0.5 3.9697 -0.5 4.50014H2.5C2.5 4.76535 2.39464 5.01971 2.20711 5.20724L0.0857864 3.08592ZM-0.5 4.50014V8.50014H2.5V4.50014H-0.5ZM-0.5 8.50014C-0.5 9.03057 -0.289287 9.53928 0.0857864 9.91435L2.20711 7.79303C2.39464 7.98057 2.5 8.23492 2.5 8.50014H-0.5ZM0.0857864 9.91435C0.460861 10.2894 0.96957 10.5001 1.5 10.5001V7.50014C1.76521 7.50014 2.01957 7.60549 2.20711 7.79303L0.0857864 9.91435ZM1.5 10.5001H3.393V7.50014H1.5V10.5001ZM3.39434 10.5001C3.17202 10.5003 2.95598 10.4264 2.78034 10.2901L4.61966 7.92014C4.26839 7.64752 3.8363 7.49974 3.39166 7.50014L3.39434 10.5001ZM2.7789 10.289L5.8289 12.662L7.6711 10.2943L4.6211 7.92125L2.7789 10.289ZM8.25 11.4781V1.52314H5.25V11.4781H8.25ZM11.1107 4.09676C10.9905 4.17701 10.8556 4.23277 10.7138 4.26087L10.1308 1.31806C9.88591 1.36658 9.65295 1.4629 9.44528 1.60151L11.1107 4.09676ZM10.7138 4.26087C10.572 4.28896 10.4261 4.28882 10.2843 4.26047L10.8727 1.31873C10.6278 1.26977 10.3758 1.26953 10.1308 1.31806L10.7138 4.26087ZM10.2843 4.26047C10.1426 4.23212 10.0078 4.17612 9.88773 4.09565L11.5577 1.60343C11.3503 1.46444 11.1175 1.3677 10.8727 1.31873L10.2843 4.26047ZM9.88773 4.09565C9.76764 4.01518 9.66459 3.91183 9.58448 3.79151L12.0815 2.12876C11.9431 1.92094 11.7651 1.74242 11.5577 1.60343L9.88773 4.09565ZM9.58283 3.78903C10.1158 4.59293 10.4001 5.53609 10.4001 6.50064H13.4001C13.4001 4.94639 12.942 3.42662 12.0832 2.13124L9.58283 3.78903ZM10.4001 6.50064C10.4001 7.46518 10.1158 8.40834 9.58283 9.21224L12.0832 10.87C12.942 9.57465 13.4001 8.05488 13.4001 6.50064H10.4001ZM9.59875 9.18871C9.76265 8.9514 10.0132 8.78794 10.2964 8.73356L10.8622 11.6797C11.3514 11.5858 11.7841 11.3035 12.0672 10.8936L9.59875 9.18871ZM10.2964 8.73356C10.5797 8.67917 10.8729 8.7382 11.1131 8.89793L9.45158 11.3958C9.86637 11.6717 10.3729 11.7737 10.8622 11.6797L10.2964 8.73356ZM11.1131 8.89793C11.3532 9.05766 11.521 9.30532 11.5803 9.58757L8.64449 10.2046C8.74696 10.6921 9.03679 11.1199 9.45158 11.3958L11.1131 8.89793ZM11.5803 9.58757C11.6397 9.86981 11.5858 10.1641 11.4303 10.407L8.90375 8.78931C8.63513 9.20886 8.54203 9.71712 8.64449 10.2046L11.5803 9.58757ZM11.4174 10.4267C12.1886 9.26271 12.5999 7.89739 12.5999 6.50114H9.59992C9.59992 7.308 9.36225 8.097 8.91658 8.76962L11.4174 10.4267ZM12.5999 6.50114C12.5999 5.10488 12.1886 3.73956 11.4174 2.57562L8.91658 4.23265C9.36225 4.90527 9.59992 5.69427 9.59992 6.50114H12.5999ZM11.4146 2.57141C11.4949 2.69164 11.5506 2.82652 11.5787 2.96831L8.63592 3.5513C8.68444 3.79622 8.78076 4.02918 8.91937 4.23686L11.4146 2.57141ZM11.5787 2.96831C11.6068 3.11011 11.6067 3.25605 11.5783 3.3978L8.6366 2.80945C8.58763 3.05429 8.5874 3.30638 8.63592 3.5513L11.5787 2.96831ZM11.5783 3.3978C11.55 3.53955 11.494 3.67432 11.4135 3.79441L8.9213 2.12441C8.78231 2.33183 8.68556 2.56462 8.6366 2.80945L11.5783 3.3978ZM11.4135 3.79441C11.333 3.91449 11.2297 4.01754 11.1094 4.09766L9.44662 1.60061C9.2388 1.739 9.06029 1.91699 8.9213 2.12441L11.4135 3.79441ZM13.8214 -0.539793C13.4952 -0.923926 13.0297 -1.16274 12.5275 -1.20371L12.2836 1.78636C11.9929 1.76265 11.7234 1.62441 11.5346 1.40206L13.8214 -0.539793ZM12.5275 -1.20371C12.0252 -1.24467 11.5272 -1.08443 11.1431 -0.758236L13.0849 1.52851C12.8626 1.71732 12.5743 1.81008 12.2836 1.78636L12.5275 -1.20371ZM11.1431 -0.758236C10.7589 -0.432041 10.5201 0.03339 10.4792 0.535673L13.4692 0.779544C13.4455 1.07029 13.3073 1.33969 13.0849 1.52851L11.1431 -0.758236ZM10.4792 0.535673C10.4382 1.03795 10.5984 1.53593 10.9246 1.92006L13.2114 -0.0217932C13.4002 0.200557 13.4929 0.488807 13.4692 0.779544L10.4792 0.535673ZM10.9223 1.91728C12.0054 3.19907 12.5996 4.823 12.5996 6.50114H15.5996C15.5996 4.11413 14.7544 1.80423 13.2137 -0.0190117L10.9223 1.91728ZM12.5996 6.50114C12.5996 8.17927 12.0054 9.8032 10.9223 11.085L13.2137 13.0213C14.7544 11.198 15.5996 8.88814 15.5996 6.50114H12.5996ZM10.9246 11.0822C10.5984 11.4663 10.4382 11.9643 10.4792 12.4666L13.4692 12.2227C13.4929 12.5135 13.4002 12.8017 13.2114 13.0241L10.9246 11.0822ZM10.4792 12.4666C10.5201 12.9689 10.7589 13.4343 11.1431 13.7605L13.0849 11.4738C13.3073 11.6626 13.4455 11.932 13.4692 12.2227L10.4792 12.4666ZM11.1431 13.7605C11.5272 14.0867 12.0252 14.2469 12.5275 14.206L12.2836 11.2159C12.5743 11.1922 12.8626 11.2849 13.0849 11.4738L11.1431 13.7605ZM12.5275 14.206C13.0297 14.165 13.4952 13.9262 13.8214 13.5421L11.5346 11.6002C11.7234 11.3779 11.9929 11.2396 12.2836 11.2159L12.5275 14.206ZM13.8235 13.5395C15.4872 11.5716 16.4 9.07804 16.4 6.50114H13.4C13.4 8.36893 12.7384 10.1763 11.5325 11.6027L13.8235 13.5395ZM16.4 6.50114C16.4 3.92423 15.4872 1.43063 13.8235 -0.537276L11.5325 1.39955C12.7384 2.82592 13.4 4.63334 13.4 6.50114H16.4Z" fill="black" mask="url(#path-1-inside-1_2211_615)"/>
</svg>
