<svg width="188" height="188" viewBox="0 0 188 188" fill="none" xmlns="http://www.w3.org/2000/svg">
<path d="M31.3346 172.333C27.0263 172.333 23.3394 170.8 20.274 167.735C17.2085 164.67 15.6732 160.98 15.668 156.667V62.6665C15.668 58.3582 17.2033 54.6713 20.274 51.6058C23.3446 48.5404 27.0315 47.0051 31.3346 46.9998H62.668L94.0013 15.6665L125.335 46.9998H156.668C160.976 46.9998 164.666 48.5352 167.736 51.6058C170.807 54.6765 172.34 58.3634 172.335 62.6665V156.667C172.335 160.975 170.802 164.664 167.736 167.735C164.671 170.806 160.982 172.338 156.668 172.333H31.3346ZM31.3346 156.667H156.668V62.6665H31.3346V156.667ZM47.0013 141H141.001L111.626 101.833L88.1263 133.167L70.5013 109.667L47.0013 141ZM137.085 101.833C140.349 101.833 143.124 100.692 145.411 98.41C147.699 96.1279 148.84 93.3523 148.835 90.0832C148.829 86.8141 147.688 84.0411 145.411 81.7642C143.135 79.4873 140.359 78.3436 137.085 78.3332C133.81 78.3227 131.037 79.4664 128.766 81.7642C126.494 84.062 125.35 86.835 125.335 90.0832C125.319 93.3314 126.463 96.107 128.766 98.41C131.069 100.713 133.842 101.854 137.085 101.833ZM79.118 46.9998H108.885L94.0013 32.1165L79.118 46.9998Z" fill="black"/>
</svg>
