<svg width="188" height="188" viewBox="0 0 188 188" fill="none" xmlns="http://www.w3.org/2000/svg">
<path d="M137.083 94C133.967 94 130.978 92.7621 128.775 90.5585C126.571 88.355 125.333 85.3663 125.333 82.25C125.333 79.1337 126.571 76.145 128.775 73.9415C130.978 71.7379 133.967 70.5 137.083 70.5C140.2 70.5 143.188 71.7379 145.392 73.9415C147.595 76.145 148.833 79.1337 148.833 82.25C148.833 85.3663 147.595 88.355 145.392 90.5585C143.188 92.7621 140.2 94 137.083 94ZM113.583 62.6667C110.467 62.6667 107.478 61.4287 105.275 59.2252C103.071 57.0216 101.833 54.033 101.833 50.9167C101.833 47.8004 103.071 44.8117 105.275 42.6082C107.478 40.4046 110.467 39.1667 113.583 39.1667C116.7 39.1667 119.688 40.4046 121.892 42.6082C124.095 44.8117 125.333 47.8004 125.333 50.9167C125.333 54.033 124.095 57.0216 121.892 59.2252C119.688 61.4287 116.7 62.6667 113.583 62.6667ZM74.4167 62.6667C71.3004 62.6667 68.3117 61.4287 66.1082 59.2252C63.9046 57.0216 62.6667 54.033 62.6667 50.9167C62.6667 47.8004 63.9046 44.8117 66.1082 42.6082C68.3117 40.4046 71.3004 39.1667 74.4167 39.1667C77.533 39.1667 80.5216 40.4046 82.7252 42.6082C84.9287 44.8117 86.1667 47.8004 86.1667 50.9167C86.1667 54.033 84.9287 57.0216 82.7252 59.2252C80.5216 61.4287 77.533 62.6667 74.4167 62.6667ZM50.9167 94C47.8004 94 44.8117 92.7621 42.6082 90.5585C40.4046 88.355 39.1667 85.3663 39.1667 82.25C39.1667 79.1337 40.4046 76.145 42.6082 73.9415C44.8117 71.7379 47.8004 70.5 50.9167 70.5C54.033 70.5 57.0216 71.7379 59.2252 73.9415C61.4287 76.145 62.6667 79.1337 62.6667 82.25C62.6667 85.3663 61.4287 88.355 59.2252 90.5585C57.0216 92.7621 54.033 94 50.9167 94ZM94 23.5C75.3022 23.5 57.3703 30.9277 44.149 44.149C30.9277 57.3703 23.5 75.3022 23.5 94C23.5 112.698 30.9277 130.63 44.149 143.851C57.3703 157.072 75.3022 164.5 94 164.5C97.1163 164.5 100.105 163.262 102.309 161.059C104.512 158.855 105.75 155.866 105.75 152.75C105.75 149.695 104.575 146.953 102.695 144.917C100.893 142.802 99.7183 140.06 99.7183 137.083C99.7183 133.967 100.956 130.978 103.16 128.775C105.363 126.571 108.352 125.333 111.468 125.333H125.333C135.721 125.333 145.683 121.207 153.028 113.862C160.374 106.517 164.5 96.5543 164.5 86.1667C164.5 51.5433 132.932 23.5 94 23.5Z" fill="black"/>
</svg>
