<svg width="169" height="163" viewBox="0 0 169 163" fill="none" xmlns="http://www.w3.org/2000/svg">
<path d="M54 51.2H113.4L94.8375 27.95L79.9875 46.55L68.85 32.6L54 51.2ZM110.925 27.95C112.987 27.95 114.741 27.2727 116.187 25.918C117.632 24.5633 118.353 22.9156 118.35 20.975C118.347 19.0344 117.626 17.3883 116.187 16.0367C114.748 14.6851 112.994 14.0062 110.925 14C108.856 13.9938 107.104 14.6727 105.668 16.0367C104.233 17.4007 103.51 19.0468 103.5 20.975C103.49 22.9032 104.213 24.5509 105.668 25.918C107.123 27.2851 108.876 27.9624 110.925 27.95Z" fill="black"/>
<circle cx="40.5" cy="84.5" r="9" stroke="black" stroke-width="5"/>
<circle cx="128.5" cy="84.5" r="9" stroke="black" stroke-width="5"/>
<rect x="35.5" y="93.5" width="10" height="37" stroke="black" stroke-width="5"/>
<rect x="123.5" y="93.5" width="10" height="37" stroke="black" stroke-width="5"/>
<path d="M26 136C26 133.239 28.2386 131 31 131H49C51.7614 131 54 133.239 54 136V141H26V136Z" stroke="black" stroke-width="5"/>
<path d="M114 136C114 133.239 116.239 131 119 131H137C139.761 131 142 133.239 142 136V141H114V136Z" stroke="black" stroke-width="5"/>
<rect x="2.5" y="142.5" width="164" height="18" rx="5.5" stroke="black" stroke-width="5"/>
<path d="M37.2194 109.815C38.2217 108.865 38.2645 107.283 37.3149 106.281C36.3653 105.278 34.783 105.236 33.7806 106.185L37.2194 109.815ZM9.16159 119.669L8.80871 117.194L9.16159 119.669ZM33.6352 92.335C29.9639 96.4468 19.9685 104.689 8.3028 106.682L9.14493 111.611C22.3273 109.358 33.2647 100.257 37.3648 95.665L33.6352 92.335ZM3.5 112.247V116.818H8.5V112.247H3.5ZM9.51448 122.144C16.5007 121.148 28.6223 117.959 37.2194 109.815L33.7806 106.185C26.2849 113.286 15.3791 116.257 8.80871 117.194L9.51448 122.144ZM3.5 116.818C3.5 119.932 6.17027 122.621 9.51448 122.144L8.80871 117.194C8.76001 117.201 8.73081 117.195 8.71133 117.189C8.68856 117.181 8.65888 117.166 8.62681 117.137C8.56145 117.077 8.5 116.971 8.5 116.818H3.5ZM8.3028 106.682C5.69238 107.128 3.5 109.353 3.5 112.247H8.5C8.5 112.031 8.69044 111.688 9.14493 111.611L8.3028 106.682Z" fill="black"/>
<path d="M132.281 109.815C131.278 108.865 131.236 107.283 132.185 106.281C133.135 105.278 134.717 105.236 135.719 106.185L132.281 109.815ZM160.338 119.669L160.691 117.194L160.338 119.669ZM135.865 92.335C139.536 96.4468 149.532 104.689 161.197 106.682L160.355 111.611C147.173 109.358 136.235 100.257 132.135 95.665L135.865 92.335ZM166 112.247V116.818H161V112.247H166ZM159.986 122.144C152.999 121.148 140.878 117.959 132.281 109.815L135.719 106.185C143.215 113.286 154.121 116.257 160.691 117.194L159.986 122.144ZM166 116.818C166 119.932 163.33 122.621 159.986 122.144L160.691 117.194C160.74 117.201 160.769 117.195 160.789 117.189C160.811 117.181 160.841 117.166 160.873 117.137C160.939 117.077 161 116.971 161 116.818H166ZM161.197 106.682C163.808 107.128 166 109.353 166 112.247H161C161 112.031 160.81 111.688 160.355 111.611L161.197 106.682Z" fill="black"/>
<path d="M46 94C59 109.5 100.5 120 123 94" stroke="black" stroke-width="5"/>
<path d="M46 107C59 119.75 100.5 128.387 123 107" stroke="black" stroke-width="5"/>
<rect x="44.5" y="2.5" width="82" height="61" rx="6.5" stroke="black" stroke-width="5"/>
</svg>
