<svg width="182" height="182" viewBox="0 0 182 182" fill="none" xmlns="http://www.w3.org/2000/svg">
<g filter="url(#filter0_d_2313_642)">
<path d="M119.438 34.5231C119.438 24.8544 127.286 17.0625 136.898 17.0625C146.51 17.0625 154.302 24.8544 154.359 34.5231V69.9278C158.859 71.1346 162.836 73.7924 165.672 77.4891C168.508 81.1859 170.045 85.715 170.045 90.3744C170.045 95.0337 168.508 99.5629 165.672 103.26C162.836 106.956 158.859 109.614 154.359 110.821V146.283C154.359 150.913 152.519 155.355 149.245 158.629C145.97 161.904 141.529 163.743 136.898 163.743C132.267 163.743 127.826 161.904 124.552 158.629C121.277 155.355 119.438 150.913 119.438 146.283V144.963L85.7106 128.367C82.2285 126.659 78.5355 125.42 74.7281 124.681C71.9901 124.183 69.2129 123.932 66.43 123.931L66.4072 123.874H56.875V158.101C56.875 161.912 53.8037 164.983 49.9931 164.983H35.3535C31.5429 164.983 28.4716 161.912 28.4716 158.101V123.874H21.1916C15.7658 123.874 11.375 119.608 11.375 114.376V66.43C11.375 61.1406 15.7544 56.875 21.1973 56.875H66.9533C73.4581 56.7824 79.864 55.2683 85.722 52.4388L119.438 35.8483V34.5231ZM39.8466 123.874V153.608H45.5V123.874H39.8466ZM111.191 52.9108L91.9441 62.3805L91.9043 62.4033C86.2623 65.1219 80.1881 66.9419 73.9375 67.7609V111.663L74.4949 113.124C80.5577 113.977 86.4728 115.797 91.9783 118.499L111.191 127.952V52.9108Z" fill="black"/>
</g>
<defs>
<filter id="filter0_d_2313_642" x="-4" y="0" width="190" height="190" filterUnits="userSpaceOnUse" color-interpolation-filters="sRGB">
<feFlood flood-opacity="0" result="BackgroundImageFix"/>
<feColorMatrix in="SourceAlpha" type="matrix" values="0 0 0 0 0 0 0 0 0 0 0 0 0 0 0 0 0 0 127 0" result="hardAlpha"/>
<feOffset dy="4"/>
<feGaussianBlur stdDeviation="2"/>
<feComposite in2="hardAlpha" operator="out"/>
<feColorMatrix type="matrix" values="0 0 0 0 0 0 0 0 0 0 0 0 0 0 0 0 0 0 0.25 0"/>
<feBlend mode="normal" in2="BackgroundImageFix" result="effect1_dropShadow_2313_642"/>
<feBlend mode="normal" in="SourceGraphic" in2="effect1_dropShadow_2313_642" result="shape"/>
</filter>
</defs>
</svg>
