<svg width="192" height="192" viewBox="0 0 192 192" fill="none" xmlns="http://www.w3.org/2000/svg">
<g clip-path="url(#clip0_2313_627)">
<path fill-rule="evenodd" clip-rule="evenodd" d="M126.112 32C130.568 32.0002 134.937 33.2411 138.728 35.5838C142.519 37.9264 145.583 41.2783 147.576 45.264L158.664 67.432C160.616 66.632 162.536 65.768 164.424 64.84C166.323 63.8916 168.521 63.7364 170.534 64.4085C172.548 65.0806 174.212 66.5251 175.16 68.424C176.108 70.323 176.264 72.5209 175.591 74.5343C174.919 76.5477 173.475 78.2116 171.576 79.16C169.653 80.016 167.72 80.848 165.776 81.656L173.464 97.04C175.133 100.376 176.001 104.054 176 107.784V128C176.005 131.377 175.295 134.718 173.916 137.801C172.537 140.884 170.521 143.64 168 145.888V156C168 159.183 166.736 162.235 164.485 164.485C162.235 166.736 159.183 168 156 168C152.817 168 149.765 166.736 147.515 164.485C145.264 162.235 144 159.183 144 156V152H48V156C48 159.183 46.7357 162.235 44.4853 164.485C42.2348 166.736 39.1826 168 36 168C32.8174 168 29.7652 166.736 27.5147 164.485C25.2643 162.235 24 159.183 24 156V145.888C19.088 141.488 16 135.104 16 128V107.776C16.0015 104.052 16.8697 100.379 18.536 97.048L26.16 81.784C24.232 80.968 22.32 80.104 20.44 79.168C18.5507 78.2073 17.1145 76.5426 16.4411 74.5328C15.7676 72.523 15.9109 70.3291 16.84 68.424C17.3093 67.4834 17.9593 66.6446 18.7529 65.9553C19.5466 65.2661 20.4682 64.74 21.4653 64.4072C22.4623 64.0743 23.5152 63.9413 24.5637 64.0155C25.6122 64.0898 26.6358 64.3699 27.576 64.84C29.464 65.776 31.392 66.632 33.336 67.432L44.424 45.272C46.4164 41.2848 49.4797 37.9313 53.2708 35.5872C57.0618 33.243 61.4308 32.0009 65.888 32H126.112ZM60 104C56.8174 104 53.7652 105.264 51.5147 107.515C49.2643 109.765 48 112.817 48 116C48 119.183 49.2643 122.235 51.5147 124.485C53.7652 126.736 56.8174 128 60 128C63.1826 128 66.2348 126.736 68.4853 124.485C70.7357 122.235 72 119.183 72 116C72 112.817 70.7357 109.765 68.4853 107.515C66.2348 105.264 63.1826 104 60 104ZM132 104C128.817 104 125.765 105.264 123.515 107.515C121.264 109.765 120 112.817 120 116C120 119.183 121.264 122.235 123.515 124.485C125.765 126.736 128.817 128 132 128C135.183 128 138.235 126.736 140.485 124.485C142.736 122.235 144 119.183 144 116C144 112.817 142.736 109.765 140.485 107.515C138.235 105.264 135.183 104 132 104ZM126.112 48H65.888C64.5713 47.9998 63.2748 48.3246 62.1137 48.9456C60.9526 49.5667 59.9628 50.4647 59.232 51.56L58.736 52.424L48.576 72.728C60.96 76.44 77.648 80 96 80C113.136 80 128.808 76.896 140.88 73.464L143.416 72.728L133.264 52.424C132.675 51.2465 131.805 50.2325 130.73 49.472C129.656 48.7114 128.41 48.2278 127.104 48.064L126.12 48H126.112Z" fill="black"/>
</g>
<defs>
<clipPath id="clip0_2313_627">
<rect width="192" height="192" fill="white"/>
</clipPath>
</defs>
</svg>
