<svg width="128" height="143" viewBox="0 0 128 143" fill="none" xmlns="http://www.w3.org/2000/svg">
<path d="M128 0V43.75C128 46.9989 126.719 50.1147 124.439 52.4121C122.159 54.7094 119.067 56 115.842 56C112.618 56 109.525 54.7094 107.245 52.4121C104.965 50.1147 103.684 46.9989 103.684 43.75C103.684 40.5011 104.965 37.3853 107.245 35.0879C109.525 32.7906 112.618 31.5 115.842 31.5C117.718 31.5 119.489 31.92 121.053 32.69V12.145L86.3158 19.6V50.75C86.3158 53.9989 85.0349 57.1147 82.7548 59.4121C80.4748 61.7094 77.3824 63 74.1579 63C70.9334 63 67.841 61.7094 65.561 59.4121C63.2809 57.1147 62 53.9989 62 50.75C62 47.5011 63.2809 44.3853 65.561 42.0879C67.841 39.7906 70.9334 38.5 74.1579 38.5C76.0337 38.5 77.8053 38.92 79.3684 39.69V10.5L128 0Z" fill="black"/>
<path d="M59.4993 83.5V118.917C59.4993 121.547 58.4546 124.069 56.5948 125.929C54.7351 127.789 52.2127 128.833 49.5827 128.833C46.9526 128.833 44.4303 127.789 42.5705 125.929C40.7108 124.069 39.666 121.547 39.666 118.917C39.666 116.287 40.7108 113.764 42.5705 111.905C44.4303 110.045 46.9526 109 49.5827 109C51.1127 109 52.5577 109.34 53.8327 109.963V93.3317L25.4993 99.3667V124.583C25.4993 127.213 24.4546 129.736 22.5948 131.595C20.7351 133.455 18.2127 134.5 15.5827 134.5C12.9526 134.5 10.4303 133.455 8.57054 131.595C6.7108 129.736 5.66602 127.213 5.66602 124.583C5.66602 121.953 6.7108 119.431 8.57054 117.571C10.4303 115.711 12.9526 114.667 15.5827 114.667C17.1127 114.667 18.5577 115.007 19.8327 115.63V92L59.4993 83.5Z" fill="black"/>
</svg>
