<svg width="182" height="182" viewBox="0 0 182 182" fill="none" xmlns="http://www.w3.org/2000/svg">
<path d="M147.875 36.9688H129.689L120.859 23.7027C120.079 22.533 119.022 21.5743 117.781 20.912C116.541 20.2497 115.156 19.9042 113.75 19.9063H68.25C66.8439 19.9042 65.4591 20.2497 64.2187 20.912C62.9784 21.5743 61.921 22.533 61.1406 23.7027L52.3037 36.9688H34.125C28.8455 36.9688 23.7823 39.066 20.0492 42.7992C16.316 46.5323 14.2188 51.5955 14.2188 56.875V136.5C14.2188 141.779 16.316 146.843 20.0492 150.576C23.7823 154.309 28.8455 156.406 34.125 156.406H147.875C150.489 156.406 153.078 155.891 155.493 154.891C157.908 153.891 160.102 152.424 161.951 150.576C163.799 148.727 165.266 146.533 166.266 144.118C167.266 141.703 167.781 139.114 167.781 136.5V56.875C167.781 54.2609 167.266 51.6724 166.266 49.2572C165.266 46.8421 163.799 44.6476 161.951 42.7992C160.102 40.9507 157.908 39.4844 155.493 38.484C153.078 37.4837 150.489 36.9688 147.875 36.9688ZM150.719 136.5C150.719 137.254 150.419 137.978 149.886 138.511C149.353 139.044 148.629 139.344 147.875 139.344H34.125C33.3708 139.344 32.6475 139.044 32.1142 138.511C31.5809 137.978 31.2812 137.254 31.2812 136.5V56.875C31.2812 56.1208 31.5809 55.3975 32.1142 54.8642C32.6475 54.3309 33.3708 54.0313 34.125 54.0313H56.875C58.2811 54.0333 59.6659 53.6878 60.9063 53.0255C62.1466 52.3632 63.204 51.4045 63.9844 50.2349L72.8142 36.9688H109.179L118.016 50.2349C118.796 51.4045 119.853 52.3632 121.094 53.0255C122.334 53.6878 123.719 54.0333 125.125 54.0313H147.875C148.629 54.0313 149.353 54.3309 149.886 54.8642C150.419 55.3975 150.719 56.1208 150.719 56.875V136.5ZM91 59.7188C84.2507 59.7188 77.653 61.7202 72.0412 65.4699C66.4293 69.2196 62.0555 74.5492 59.4726 80.7847C56.8898 87.0202 56.214 93.8816 57.5307 100.501C58.8474 107.121 62.0975 113.201 66.87 117.974C71.6424 122.746 77.7229 125.996 84.3425 127.313C90.9621 128.63 97.8235 127.954 104.059 125.371C110.295 122.788 115.624 118.414 119.374 112.803C123.124 107.191 125.125 100.593 125.125 93.8438C125.116 84.7961 121.517 76.1218 115.12 69.7241C108.722 63.3265 100.048 59.7282 91 59.7188ZM91 110.906C87.6254 110.906 84.3265 109.906 81.5206 108.031C78.7147 106.156 76.5277 103.491 75.2363 100.373C73.9449 97.2555 73.607 93.8248 74.2654 90.515C74.9237 87.2052 76.5488 84.165 78.935 81.7787C81.3212 79.3925 84.3615 77.7675 87.6713 77.1091C90.9811 76.4507 94.4118 76.7886 97.5295 78.0801C100.647 79.3715 103.312 81.5584 105.187 84.3643C107.062 87.1703 108.062 90.4691 108.062 93.8438C108.062 98.369 106.265 102.709 103.065 105.909C99.8652 109.109 95.5253 110.906 91 110.906Z" fill="black"/>
</svg>
