<svg width="148" height="150" viewBox="0 0 148 150" fill="none" xmlns="http://www.w3.org/2000/svg">
<path d="M115.773 60.0766L87.4914 31.9756C87.0635 25.8831 88.5285 19.8069 91.6894 14.5642C94.8503 9.32143 99.5555 5.16364 105.172 2.65C110.789 0.136355 117.048 -0.612582 123.107 0.503918C129.166 1.62042 134.734 4.5488 139.064 8.89522C143.435 13.1965 146.378 18.718 147.497 24.7213C148.616 30.7245 147.858 36.9233 145.326 42.4885C142.793 48.0536 138.607 52.7198 133.325 55.8629C128.044 59.006 121.92 60.4761 115.773 60.0766ZM10.6623 114.78L80.2319 45.9137L101.632 67.1206L32.0625 136.062L10.7379 114.78H10.6623ZM0.0756191 135.987L16.0313 120.1L26.7692 130.741L10.7379 146.628L0 135.987H0.0756191ZM72.2919 112.532L87.4158 97.5447V150H72.2919V112.532Z" fill="black"/>
</svg>
