<svg width="166" height="166" viewBox="0 0 166 166" fill="none" xmlns="http://www.w3.org/2000/svg">
<path d="M117.584 6.91675H48.4173C44.7485 6.91675 41.2299 8.37418 38.6357 10.9684C36.0414 13.5627 34.584 17.0813 34.584 20.7501V39.5001C34.584 40.6046 35.4794 41.5001 36.584 41.5001H46.4173C47.5219 41.5001 48.4173 40.6046 48.4173 39.5001V29.6667C48.4173 28.5622 49.3127 27.6667 50.4173 27.6667H115.584C116.689 27.6667 117.584 28.5622 117.584 29.6667V136.333C117.584 137.438 116.689 138.333 115.584 138.333H50.4173C49.3127 138.333 48.4173 137.438 48.4173 136.333V126.5C48.4173 125.396 47.5219 124.5 46.4173 124.5H36.584C35.4794 124.5 34.584 125.396 34.584 126.5V145.25C34.584 148.919 36.0414 152.437 38.6357 155.032C41.2299 157.626 44.7485 159.083 48.4173 159.083H117.584C121.253 159.083 124.771 157.626 127.366 155.032C129.96 152.437 131.417 148.919 131.417 145.25V20.7501C131.417 17.0813 129.96 13.5627 127.366 10.9684C124.771 8.37418 121.253 6.91675 117.584 6.91675Z" fill="black"/>
<rect x="2" y="47" width="57" height="32" rx="6" fill="black"/>
<path d="M48.8901 84.5177L42.5558 77.6796C41.9628 77.0394 42.4168 76 43.2894 76H50.8113C51.432 76 51.9028 76.5596 51.7966 77.1711L50.6089 84.0092C50.4673 84.8248 49.4526 85.125 48.8901 84.5177Z" fill="black"/>
<rect x="28" y="94" width="37" height="20.7719" rx="6" fill="black"/>
<path d="M57.9562 117.833L54.8722 114.504C54.2792 113.864 54.7332 112.824 55.6058 112.824H59.2681C59.8888 112.824 60.3596 113.384 60.2534 113.996L59.6751 117.325C59.5334 118.141 58.5188 118.441 57.9562 117.833Z" fill="black"/>
<path d="M31 71L29.695 69.849C25.06 65.7771 22 63.0828 22 59.7956C22 57.1014 24.178 55 26.95 55C28.516 55 30.019 55.7063 31 56.8136C31.981 55.7063 33.484 55 35.05 55C37.822 55 40 57.1014 40 59.7956C40 63.0828 36.94 65.7771 32.305 69.849L31 71Z" fill="white"/>
<path fill-rule="evenodd" clip-rule="evenodd" d="M45.4472 97.7979C45.6402 97.3246 46.1383 96.8952 46.7668 97.0228C47.7279 97.2169 48.7482 97.9838 48.82 99.2275L48.8239 99.3674V101.082H50.3919C50.7631 101.082 51.1301 101.166 51.4683 101.327C51.8064 101.488 52.108 101.723 52.3527 102.017C52.5975 102.311 52.7799 102.656 52.8877 103.03C52.9955 103.403 53.0261 103.797 52.9777 104.184L52.9581 104.317L52.3648 107.747C52.2596 108.356 51.9617 108.91 51.5195 109.319C51.0773 109.727 50.5167 109.966 49.929 109.997L49.7992 110H42.956C42.4571 110 41.977 109.799 41.614 109.439C41.251 109.079 41.0325 108.587 41.0033 108.063L41 107.942V103.826C41 103.301 41.1906 102.796 41.5329 102.414C41.8751 102.032 42.3432 101.803 42.8412 101.772L42.956 101.768H43.8296L45.4472 97.7979ZM43.608 103.14H42.956C42.783 103.14 42.6172 103.213 42.4949 103.341C42.3727 103.47 42.304 103.644 42.304 103.826V107.942C42.304 108.124 42.3727 108.298 42.4949 108.427C42.6172 108.556 42.783 108.628 42.956 108.628H43.608V103.14ZM46.6234 98.3933L44.9647 102.466C44.9416 102.523 44.9258 102.582 44.9178 102.644L44.9119 102.736V108.628H49.7992C50.0867 108.628 50.3662 108.528 50.5941 108.344C50.822 108.159 50.9857 107.901 51.0595 107.609L51.0824 107.502L51.6757 104.072C51.7085 103.882 51.703 103.688 51.6597 103.501C51.6164 103.314 51.5362 103.139 51.4243 102.987C51.3123 102.834 51.1712 102.709 51.0101 102.617C50.849 102.526 50.6715 102.472 50.4891 102.458L50.3919 102.454H48.8239C48.4949 102.454 48.178 102.324 47.9368 102.088C47.6956 101.853 47.5478 101.53 47.5232 101.185L47.5199 101.082V99.3674C47.5199 98.9881 47.2369 98.6019 46.7342 98.4276L46.6234 98.3933Z" fill="white"/>
</svg>
