<svg width="202" height="202" viewBox="0 0 202 202" fill="none" xmlns="http://www.w3.org/2000/svg">
<path d="M69.4375 132.562H107.312V145.188H69.4375V132.562Z" fill="black"/>
<path d="M153.053 50.5L163.872 88.375H189.375V75.75H173.398L165.192 47.0344C164.429 44.4013 162.835 42.0858 160.647 40.4347C158.458 38.7836 155.794 37.8855 153.053 37.875H144.537L139.942 21.7844C139.179 19.1513 137.585 16.8358 135.397 15.1847C133.208 13.5336 130.544 12.6355 127.803 12.625H48.9471C46.2077 12.6365 43.5456 13.5342 41.3588 15.1841C39.1719 16.8339 37.5777 19.1472 36.8145 21.7781L28.6083 50.5H12.625V63.125H38.1275L48.9471 25.25H127.803L131.407 37.875H74.1971C71.4577 37.8865 68.7956 38.7842 66.6088 40.4341C64.4219 42.0839 62.8277 44.3972 62.0645 47.0281L55.6573 69.4375H48.6946C46.0637 69.439 43.4991 70.2623 41.3589 71.7924C39.2188 73.3225 37.6101 75.483 36.7577 77.972L28.8608 101H12.625V113.625H25.25V157.812C25.255 161.159 26.5867 164.368 28.9533 166.734C31.3199 169.101 34.5282 170.432 37.875 170.438V189.375H50.5V170.438H126.25V189.375H138.875V170.438C142.222 170.432 145.43 169.101 147.797 166.734C150.163 164.368 151.495 161.159 151.5 157.812V113.625H164.125V101H147.896L139.999 77.9783C139.147 75.4872 137.538 73.3246 135.396 71.7932C133.255 70.2617 130.688 69.4381 128.055 69.4375H68.7873L74.1971 50.5H153.053ZM138.875 119.938V132.562H126.25V145.188H138.875V157.812H37.875V145.188H50.5V132.562H37.875V119.938H138.875ZM136.71 107.312H40.0402L48.6946 82.0625H128.055L136.71 107.312Z" fill="black"/>
</svg>
